<svg width="36" height="36" viewBox="0 0 36 36" fill="none" xmlns="http://www.w3.org/2000/svg">
<path d="M3.81172 17.557C3.81172 17.557 5.234 19.6465 8.21497 21.4151C8.21497 21.4151 6.05603 3.16891 20.123 0C16.5189 13.2273 24.7073 16.9575 27.6922 9.96933C32.6768 16.6245 28.8921 22.4307 28.8921 22.4307C30.936 22.7252 32.6529 20.4922 32.6529 20.4922C32.6683 20.7673 32.6768 21.0443 32.6768 21.3232C32.6769 29.4289 26.1058 36 18 36C9.89418 36 3.32312 29.4289 3.32312 21.3231C3.32312 20.0211 3.49356 18.759 3.81172 17.557Z" fill="#FF6536"/>
<path d="M32.653 20.4922C32.653 20.4922 30.9361 22.7252 28.8922 22.4307C28.8922 22.4307 32.6769 16.6245 27.6922 9.96933C24.7074 16.9575 16.519 13.2273 20.123 0C19.3696 0.169734 18.6631 0.382992 18 0.634078V36C26.1058 36 32.6769 29.4289 32.6769 21.3231C32.6769 21.0442 32.6683 20.7673 32.653 20.4922Z" fill="#FF421D"/>
<path d="M11.5634 29.5632C11.5634 33.1181 14.4452 35.9999 18 35.9999C21.5549 35.9999 24.4367 33.1181 24.4367 29.5632C24.4367 27.6605 23.6112 25.9506 22.2987 24.7722C19.81 28.1532 16.2636 23.0246 19.0274 19.2793C19.0274 19.2793 11.5634 20.2147 11.5634 29.5632Z" fill="#FBBF00"/>
<path d="M24.4367 29.5632C24.4367 27.6605 23.6111 25.9506 22.2986 24.7722C19.81 28.1532 16.2636 23.0246 19.0274 19.2793C19.0274 19.2793 18.6218 19.3303 18 19.5265V35.9999C21.5549 35.9999 24.4367 33.1181 24.4367 29.5632Z" fill="#FFA900"/>
</svg>
