<svg width="36" height="36" viewBox="0 0 36 36" fill="none" xmlns="http://www.w3.org/2000/svg">
<g clip-path="url(#clip0_3497_4001)">
<path d="M30.6006 24.6352C28.9682 24.2293 27.7498 22.7576 27.7498 20.9998C27.7498 18.9285 29.4287 18 31.5 18C31.739 18 31.9885 18.031 32.2156 18.0751C32.2262 18.3004 32.2498 18.522 32.2498 18.7498C32.2498 21.1456 31.6496 22.6515 30.6006 24.6352ZM9.65672 29.5275C10.998 27.6107 14.2318 26.2496 18 26.2496C21.7676 26.2496 24.9933 27.6176 26.3346 29.5343C23.9878 31.235 21.1134 32.2498 18 32.2498C14.8829 32.2498 12.0054 31.2318 9.65672 29.5275ZM3.75019 18C3.75019 17.7697 3.77374 17.5456 3.78436 17.3185C4.01154 17.2744 4.26045 17.2496 4.5 17.2496C6.57127 17.2496 8.25019 18.9285 8.25019 20.9997C8.25019 22.7576 7.02991 24.2267 5.3981 24.6326C4.34981 22.6496 3.75019 20.3946 3.75019 18ZM18 3.74955C24.5582 3.74955 30.0029 8.20856 31.6552 14.2758H4.34482C5.99709 8.20863 11.4418 3.74955 18 3.74955ZM18 0C8.05901 0 0 8.05844 0 18C0 27.941 8.05901 36 18 36C27.941 36 36 27.941 36 18C36 8.05844 27.941 0 18 0Z" fill="#535353"/>
<path d="M23.5861 19.8619C23.5861 21.233 21.0736 22.3446 17.9738 22.3446C14.8741 22.3446 12.3616 21.233 12.3616 19.8619C12.3616 18.4908 14.8741 17.3792 17.9738 17.3792C21.0736 17.3792 23.5861 18.4908 23.5861 19.8619Z" fill="#FECA09"/>
</g>
<defs>
<clipPath id="clip0_3497_4001">
<rect width="36" height="36" fill="white"/>
</clipPath>
</defs>
</svg>
