<svg width="36" height="36" viewBox="0 0 36 36" fill="none" xmlns="http://www.w3.org/2000/svg">
<g clip-path="url(#clip0_3497_4006)">
<path d="M15.6139 1.55164L1.54768 15.6179C0.232051 16.9335 0.232051 19.0665 1.54768 20.3821L15.6139 34.4484C16.9295 35.764 19.0626 35.764 20.3782 34.4484L34.4444 20.3821C35.76 19.0665 35.76 16.9335 34.4444 15.6179L20.3782 1.55165C19.0626 0.236022 16.9295 0.236021 15.6139 1.55164Z" fill="#4D4D4D"/>
<path d="M32.8576 17.2048L18.7914 3.13857C18.3543 2.70149 17.6457 2.70149 17.2086 3.13857L3.14239 17.2048C2.70532 17.6419 2.70532 18.3505 3.1424 18.7876L17.2086 32.8538C17.6457 33.2909 18.3543 33.2909 18.7914 32.8538L32.8576 18.7876C33.2947 18.3505 33.2947 17.6419 32.8576 17.2048Z" fill="#FFD91D"/>
<path d="M25.3125 13.5L19.6875 9.5625V11.8125H18C16.6573 11.8125 15.3697 12.3459 14.4203 13.2953C13.4709 14.2447 12.9375 15.5323 12.9375 16.875V25.3125H16.3125V16.875C16.3125 16.4274 16.4903 15.9982 16.8068 15.6818C17.1232 15.3653 17.5524 15.1875 18 15.1875H19.6875V17.4375L25.3125 13.5Z" fill="#4D4D4D"/>
</g>
<defs>
<clipPath id="clip0_3497_4006">
<rect width="36" height="36" fill="white"/>
</clipPath>
</defs>
</svg>
