<svg width="512" height="512" viewBox="0 0 512 512" fill="none" xmlns="http://www.w3.org/2000/svg">
<path fill-rule="evenodd" clip-rule="evenodd" d="M403.744 283.588C424.482 247.667 359.62 171.374 258.866 113.201C158.082 55.029 59.5959 36.996 38.8579 72.917C27.3399 92.812 15.8509 112.736 4.36189 132.66C-16.3761 168.582 48.4859 244.845 149.269 303.018C250.024 361.19 348.538 379.253 369.277 343.331C380.766 323.407 392.255 303.512 403.744 283.588Z" fill="#FE9923"/>
<path fill-rule="evenodd" clip-rule="evenodd" d="M403.744 283.588C419.567 256.218 385.623 205.375 323.99 157.005C307.324 164.771 290.308 173.613 273.235 183.473C213.318 218.057 164.598 258.283 135.134 294.611C139.759 297.462 144.471 300.254 149.27 303.017C204.999 335.186 260.03 355.081 301.594 360.375C320.209 351.94 339.289 342.167 358.457 331.114C367.939 325.617 377.13 320.003 386.031 314.273L403.744 283.588Z" fill="#CE7C1D"/>
<path fill-rule="evenodd" clip-rule="evenodd" d="M258.866 113.202C158.082 55.029 59.596 36.996 38.858 72.917C18.12 108.809 82.982 185.102 183.765 243.275C284.52 301.447 383.034 319.51 403.744 283.588C424.482 247.667 359.62 171.374 258.866 113.202Z" fill="#FECD3D"/>
<path fill-rule="evenodd" clip-rule="evenodd" d="M185.569 244.322C285.713 301.651 383.151 319.277 403.744 283.588C419.567 256.218 385.623 205.375 323.99 157.005C307.324 164.771 290.308 173.613 273.235 183.473C240.134 202.554 210.466 223.38 185.569 244.322Z" fill="#CEA732"/>
<path fill-rule="evenodd" clip-rule="evenodd" d="M241.298 143.597C161.136 97.32 87.1991 75.302 76.1461 94.441C65.1221 113.58 121.142 166.604 201.304 212.88C281.466 259.156 355.403 281.174 366.455 262.036C377.508 242.926 321.459 189.902 241.298 143.597Z" fill="#FEA832"/>
<path fill-rule="evenodd" clip-rule="evenodd" d="M215.556 220.878C290.046 261.628 356.071 280.039 366.455 262.035C375.094 247.056 342.634 211.309 289.668 174.282C284.2 177.249 278.702 180.303 273.234 183.473C252.554 195.399 233.241 207.993 215.556 220.878Z" fill="#CE8829"/>
<path d="M328.236 336.525L313.78 361.539C307.643 361.161 301.099 360.434 294.263 359.328L312.646 327.479L328.236 336.525ZM114.016 281C118.932 284.316 123.964 287.602 129.112 290.831L145.808 261.919L130.218 252.96L114.016 281ZM16.3159 189.785C19.7189 194.934 23.6169 200.227 28.0089 205.608L46.3919 173.788L30.7729 164.771L16.3159 189.785ZM62.0689 240.773C66.5189 244.729 71.1439 248.714 75.9719 252.669L93.4819 222.361L77.8919 213.403L62.0689 240.773ZM169.862 314.39C175.272 317.212 180.653 319.946 185.976 322.534L202.177 294.495L186.587 285.449L169.862 314.39ZM229.518 341.324C235.364 343.535 241.123 345.542 246.766 347.403L262.589 320.004L246.999 311.045L229.518 341.324Z" fill="#C85929"/>
<path fill-rule="evenodd" clip-rule="evenodd" d="M108.228 379.34C87.4887 343.419 152.381 267.155 253.135 208.982C353.89 150.781 452.404 132.747 473.143 168.669C484.632 188.593 496.121 208.488 507.639 228.412C528.378 264.333 463.486 340.597 362.732 398.799C261.948 456.971 163.463 475.005 142.724 439.083C131.235 419.188 119.717 399.264 108.228 379.34Z" fill="#FE9923"/>
<path fill-rule="evenodd" clip-rule="evenodd" d="M253.136 208.982C353.891 150.781 452.405 132.747 473.144 168.669C493.883 204.59 428.991 280.854 328.237 339.027C227.453 397.228 128.968 415.262 108.229 379.34C87.4897 343.418 152.381 267.155 253.136 208.982Z" fill="#FECD3D"/>
<path fill-rule="evenodd" clip-rule="evenodd" d="M270.675 239.377C350.836 193.072 424.803 171.083 435.826 190.192C446.879 209.331 390.859 262.355 310.668 308.631C230.507 354.936 156.57 376.925 145.546 357.816C134.493 338.678 190.513 285.654 270.675 239.377Z" fill="#FEA832"/>
<path d="M265.003 406.797L282.484 437.075C276.638 439.286 270.879 441.322 265.207 443.154L249.384 415.755L265.003 406.797ZM309.825 390.247L325.997 418.286C331.349 415.697 336.73 412.992 342.111 410.142L325.415 381.23L309.825 390.247ZM183.765 432.276L198.191 457.291C204.358 456.942 210.873 456.185 217.737 455.08L199.354 423.26L183.765 432.276ZM481.2 260.523L465.61 269.54L483.963 301.36C488.355 295.98 492.282 290.715 495.656 285.566L481.2 260.523ZM366.193 357.671L382.889 386.612C388.038 383.354 393.069 380.068 397.985 376.752L381.784 348.713L366.193 357.671ZM418.52 318.113L436.03 348.45C440.858 344.465 445.483 340.51 449.904 336.525L434.11 309.155L418.52 318.113Z" fill="#C85929"/>
</svg>
