<svg width="48" height="48" viewBox="0 0 48 48" fill="none" xmlns="http://www.w3.org/2000/svg">
<g clip-path="url(#clip0_3497_3877)">
<path d="M6.97991 20.4897C6.97991 20.4897 10.6838 13.4893 21.0023 13.4893C31.3208 13.4893 35.005 20.4927 35.005 20.4927C47.0037 20.4927 47.0037 20.4927 47.0037 31.4885H5.00238C3.15516 31.5031 1.00183 29.5109 1.00183 29.5109V22.4892L3.00206 20.4897H6.97991Z" fill="#656D78"/>
<path d="M34.34 19.4936C32.8766 17.5586 28.8688 13.4893 21.0024 13.4893C13.1324 13.4893 9.11066 17.5601 7.64502 19.4936H34.34Z" fill="#4FC2E9"/>
<path d="M20.0028 13.9124H18.0024V19.4934H20.0028V13.9124Z" fill="#3BAFDA"/>
<path d="M4.9835 32.4878C2.8118 32.4878 0.57128 30.4722 0.323021 30.2436C0.118639 30.0532 0.00219727 29.7866 0.00219727 29.5082V22.4866C0.00219727 22.2215 0.10767 21.9665 0.295176 21.779L2.2954 19.7795C2.48291 19.592 2.73707 19.4865 3.00221 19.4865H6.4212C6.88781 18.7834 7.87288 17.4885 9.50184 16.2009C11.6479 14.5062 15.3855 12.4861 21.0025 12.4861C26.6203 12.4861 30.3527 14.5091 32.4944 16.2038C34.1189 17.4914 35.1004 18.7864 35.5648 19.4909C41.4432 19.4924 44.4462 19.5393 46.1793 21.1272C48.0029 22.8001 48.0029 25.7027 48.0029 31.4858C48.0029 32.0395 47.5547 32.4848 47.0039 32.4848L4.9835 32.4878ZM2.00242 29.0484C2.68654 29.5963 3.99834 30.4869 4.98275 30.4869H4.99447C4.99737 30.4869 4.99962 30.4869 5.00253 30.4869H46.002C45.9976 26.0808 45.9228 23.6059 44.8271 22.6025C43.6142 21.4907 40.5556 21.4907 35.0052 21.4907C34.6346 21.4907 34.2918 21.2841 34.1189 20.956C34.1131 20.9428 33.2268 19.3125 31.1745 17.7114C28.4323 15.5713 25.0104 14.4873 21.0025 14.4873C16.9939 14.4873 13.5675 15.5713 10.8195 17.7099C8.76204 19.311 7.87072 20.9414 7.86191 20.9575C7.68903 21.2856 7.35067 21.4864 6.98007 21.4864H3.41679L2.00242 22.9013V29.0484Z" fill="#656D78"/>
<path d="M11.0026 25.5112C8.24508 25.5112 6.00232 27.7525 6.00232 30.5092C6.00232 33.2691 8.24508 35.5103 11.0026 35.5103C13.7596 35.5103 16.0022 33.2691 16.0022 30.5092C16.0023 27.7525 13.7596 25.5112 11.0026 25.5112Z" fill="#434A54"/>
<path d="M37.0018 25.5112C34.245 25.5112 32.0037 27.7525 32.0037 30.5092C32.0037 33.2691 34.2449 35.5103 37.0018 35.5103C39.7601 35.5103 42.0029 33.2691 42.0029 30.5092C42.0029 27.7525 39.7601 25.5112 37.0018 25.5112Z" fill="#434A54"/>
<path d="M10.0021 30.5073C10.0021 31.061 10.4503 31.5093 11.0025 31.5093C11.5548 31.5093 12.0023 31.0611 12.0023 30.5073C12.0023 29.9565 11.5548 29.5083 11.0025 29.5083C10.4503 29.5083 10.0021 29.9565 10.0021 30.5073Z" fill="#F5F7FA"/>
<path d="M36.0026 30.5083C36.0026 31.062 36.4508 31.5103 37.0015 31.5103C37.5552 31.5103 38.0035 31.0621 38.0035 30.5083C38.0035 29.9575 37.5553 29.5093 37.0015 29.5093C36.4508 29.5093 36.0026 29.9575 36.0026 30.5083Z" fill="#F5F7FA"/>
<path d="M23.0029 25.4875H21.0026C20.4503 25.4875 20.0028 25.0393 20.0028 24.487C20.0028 23.9348 20.4503 23.488 21.0026 23.488H23.0028C23.555 23.488 24.0025 23.9348 24.0025 24.487C24.0026 25.0392 23.5551 25.4875 23.0029 25.4875Z" fill="#434A54"/>
<path d="M47.7275 24.4563C47.6045 23.6931 47.4257 23.0457 47.165 22.489H43.9892C43.437 22.489 42.9902 22.9372 42.9902 23.4895C42.9902 24.0418 43.4371 24.4885 43.9892 24.4885H47.4814C47.5663 24.4885 47.6484 24.4768 47.7275 24.4563Z" fill="#F5F7FA"/>
<path d="M3.00215 19.4891C2.73702 19.4891 2.48286 19.5946 2.29535 19.7821L0.29517 21.7815C0.107668 21.969 0.00219727 22.2239 0.00219727 22.489H3.00224C3.55453 22.489 4.002 22.0408 4.002 21.4885V19.489L3.00215 19.4891Z" fill="#ED5564"/>
</g>
<defs>
<clipPath id="clip0_3497_3877">
<rect width="48.0007" height="48" fill="white" transform="translate(0.00146484)"/>
</clipPath>
</defs>
</svg>
