<svg width="48" height="48" viewBox="0 0 48 48" fill="none" xmlns="http://www.w3.org/2000/svg">
<g clip-path="url(#clip0_3497_3829)">
<path d="M11.8236 24.4429C11.22 25.2676 10.6495 26.2124 10.1441 27.2979C9.91125 27.7974 10.1273 28.3922 10.6275 28.625C10.7637 28.688 10.9073 28.7188 11.0486 28.7188C11.4252 28.7188 11.7854 28.5049 11.9547 28.1417C12.4351 27.1089 12.9984 26.1744 13.6399 25.3393L11.8236 24.4429Z" fill="#CCD1D9"/>
<path d="M43.8311 29.29C43.4312 29.29 43.0519 29.0468 42.8994 28.65L40.3169 21.941C40.1191 21.4253 40.3755 20.8482 40.8911 20.6504C41.4052 20.4512 41.9825 20.709 42.1817 21.2231L44.7643 27.9337C44.962 28.4478 44.7057 29.0248 44.19 29.2241C44.0728 29.2694 43.9512 29.29 43.8311 29.29Z" fill="#E6E9ED"/>
<path d="M8.05308 33.9073C7.50154 33.9073 7.05481 33.4604 7.05481 32.9097V21.4692C7.05481 20.9169 7.50163 20.4702 8.05308 20.4702C8.60452 20.4702 9.05209 20.9169 9.05209 21.4692V32.9097C9.05209 33.4604 8.60462 33.9073 8.05308 33.9073Z" fill="#CCD1D9"/>
<path d="M35.0685 31.9105H16.1851C15.7061 31.9105 15.2938 31.5691 15.2044 31.0989L14.1563 25.5941L2.61782 19.8988C2.42591 19.8051 2.26991 19.6512 2.17175 19.4623L0.112216 15.4662C-0.0510995 15.1498 -0.0328179 14.7689 0.160592 14.4687C0.353908 14.1684 0.692351 13.9955 1.04973 14.0117L20.9657 15.0048L36.8277 11.9535C37.1529 11.892 37.4884 11.9946 37.7228 12.229L43.714 18.2217C44.0509 18.5571 44.1036 19.0831 43.8414 19.4785L35.9005 31.4638C35.7159 31.742 35.4024 31.9105 35.0685 31.9105Z" fill="#ED5564"/>
<path d="M11.8448 24.4429L11.8419 24.4531L14.1564 25.5943L15.2045 31.0991C15.2939 31.5693 15.7062 31.9106 16.1852 31.9106H27.4102C31.251 29.7704 33.6402 25.6836 33.6402 25.6836L20.6565 16.6118L11.8448 24.4429Z" fill="#CCD1D9"/>
<path d="M15.044 33.9072C15.5954 33.9072 16.043 33.4604 16.043 32.9082C16.043 32.3574 15.5955 31.9106 15.044 31.9106H14.9722C14.8923 31.3539 14.7474 30.8192 14.5445 30.3139L14.6067 30.2787C15.0843 30.0019 15.2484 29.391 14.9722 28.9135C14.6967 28.4361 14.0859 28.2736 13.6076 28.5489L13.5431 28.5856C13.2011 28.1535 12.8092 27.7608 12.3764 27.4195L12.4137 27.3536C12.6891 26.876 12.5257 26.2652 12.0475 25.9898C11.5699 25.7143 10.9591 25.877 10.6837 26.356L10.6479 26.4175C10.1418 26.2153 9.60705 26.0703 9.05194 25.9898V25.918C9.05194 25.3672 8.60447 24.9189 8.05293 24.9189C7.50139 24.9189 7.05466 25.3672 7.05466 25.918V25.9898C6.49871 26.0703 5.96405 26.2153 5.45872 26.4175L5.42282 26.356C5.14672 25.877 4.53583 25.7143 4.05826 25.9898C3.58069 26.2652 3.41672 26.876 3.69282 27.3536L3.73013 27.4195C3.29653 27.7608 2.90474 28.1534 2.56264 28.5856L2.49814 28.5489C2.02057 28.2735 1.40978 28.4361 1.13368 28.9135C0.858238 29.3925 1.02165 30.0034 1.49912 30.2787L1.56137 30.3139C1.3585 30.8207 1.21346 31.3554 1.13368 31.9106H1.06187C0.510325 31.9106 0.0635986 32.3574 0.0635986 32.9096C0.0635986 33.4604 0.510419 33.9072 1.06187 33.9072H1.13368C1.21346 34.4639 1.3585 34.9986 1.56137 35.5039L1.49912 35.539C1.02165 35.8159 0.858331 36.4268 1.13368 36.9043C1.31893 37.2236 1.65438 37.4038 1.99938 37.4038C2.16926 37.4038 2.34073 37.3598 2.49814 37.2689L2.56264 37.2323C2.90465 37.6659 3.29653 38.057 3.73013 38.3998L3.69282 38.4643C3.41672 38.9417 3.58079 39.5525 4.05826 39.8279C4.21577 39.9187 4.38714 39.9627 4.55627 39.9627C4.90203 39.9627 5.23747 39.7825 5.42272 39.4632L5.45863 39.4002C5.96395 39.6038 6.49862 39.7489 7.05456 39.8279V39.8997C7.05456 40.452 7.50139 40.8987 8.05283 40.8987C8.60428 40.8987 9.05185 40.4519 9.05185 39.8997V39.8279C9.60705 39.7488 10.1417 39.6037 10.6478 39.4002L10.6836 39.4632C10.8682 39.7825 11.2044 39.9627 11.5493 39.9627C11.7185 39.9627 11.8906 39.9187 12.0473 39.8279C12.5256 39.5525 12.6889 38.9417 12.4135 38.4643L12.3762 38.3998C12.809 38.057 13.2016 37.6659 13.5429 37.2323L13.6081 37.2689C13.7648 37.3598 13.937 37.4038 14.1061 37.4038C14.4511 37.4038 14.7873 37.2236 14.9718 36.9043C15.2479 36.4253 15.0838 35.8144 14.6064 35.539L14.5441 35.5039C14.747 34.9985 14.8928 34.4638 14.9718 33.9072H15.044Z" fill="#434A54"/>
<path d="M8.75907 32.2035C9.14946 32.5931 9.14946 33.2246 8.75907 33.6156C8.36944 34.0052 7.73662 34.0052 7.34699 33.6156C6.9566 33.2245 6.9566 32.5931 7.34699 32.2035C7.73662 31.8124 8.36944 31.8124 8.75907 32.2035Z" fill="#F5F7FA"/>
<path d="M47.0025 33.9072C47.5548 33.9072 48.0015 33.4604 48.0015 32.9082C48.0015 32.3574 47.5547 31.9106 47.0025 31.9106H46.9307C46.8515 31.3539 46.7065 30.8192 46.503 30.3139L46.566 30.2787C47.0435 30.0019 47.2076 29.391 46.9307 28.9135C46.6553 28.4361 46.0446 28.2736 45.567 28.5489L45.5025 28.5856C45.1612 28.1535 44.7686 27.7608 44.335 27.4195L44.3731 27.3536C44.6486 26.876 44.4845 26.2652 44.0069 25.9898C43.5293 25.7143 42.9186 25.877 42.6431 26.356L42.6065 26.4175C42.101 26.2153 41.5664 26.0703 41.0112 25.9898V25.918C41.0112 25.3672 40.5629 24.9189 40.0122 24.9189C39.4599 24.9189 39.0132 25.3672 39.0132 25.918V25.9898C38.458 26.0703 37.9234 26.2153 37.418 26.4175L37.3813 26.356C37.1059 25.877 36.4952 25.7143 36.0176 25.9898C35.54 26.2652 35.3759 26.876 35.6514 27.3536L35.6895 27.4195C35.2559 27.7608 34.8633 28.1534 34.522 28.5856L34.4575 28.5489C33.9799 28.2735 33.3691 28.4361 33.0923 28.9135C32.8168 29.3925 32.9809 30.0034 33.4584 30.2787L33.5199 30.3139C33.3178 30.8207 33.1728 31.3554 33.0923 31.9106H33.0204C32.4696 31.9106 32.0228 32.3574 32.0228 32.9096C32.0228 33.4604 32.4696 33.9072 33.0204 33.9072H33.0923C33.1728 34.4639 33.3178 34.9986 33.5199 35.5039L33.4584 35.539C32.9809 35.8159 32.8168 36.4268 33.0923 36.9043C33.2783 37.2236 33.6137 37.4038 33.958 37.4038C34.1278 37.4038 34.2993 37.3598 34.4575 37.2689L34.522 37.2323C34.8633 37.6659 35.2559 38.057 35.6895 38.3998L35.6514 38.4643C35.3759 38.9417 35.54 39.5525 36.0176 39.8279C36.1743 39.9187 36.3457 39.9627 36.5156 39.9627C36.8613 39.9627 37.1967 39.7825 37.3812 39.4632L37.4179 39.4002C37.9233 39.6038 38.4579 39.7489 39.0131 39.8279V39.8997C39.0131 40.452 39.4599 40.8987 40.0121 40.8987C40.5629 40.8987 41.0111 40.4519 41.0111 39.8997V39.8279C41.5663 39.7488 42.1009 39.6037 42.6064 39.4002L42.643 39.4632C42.8276 39.7825 43.1631 39.9627 43.5087 39.9627C43.6772 39.9627 43.8501 39.9187 44.0067 39.8279C44.4843 39.5525 44.6484 38.9417 44.3729 38.4643L44.3349 38.3998C44.7685 38.057 45.161 37.6659 45.5023 37.2323L45.5668 37.2689C45.7251 37.3598 45.8965 37.4038 46.0649 37.4038C46.4105 37.4038 46.746 37.2236 46.9305 36.9043C47.2073 36.4253 47.0432 35.8144 46.5657 35.539L46.5027 35.5039C46.7063 34.9985 46.8513 34.4638 46.9319 33.9072H47.0025Z" fill="#434A54"/>
<path d="M27.0294 10.02C26.6559 10.02 26.297 9.80911 26.127 9.44882C25.8898 8.95081 26.1036 8.35455 26.6016 8.11867C26.6514 8.09523 27.8276 7.54154 29.2602 7.26169C30.7265 6.97462 32.7407 6.93206 34.0048 8.35886C34.371 8.77193 34.3329 9.40335 33.9199 9.76804C33.5068 10.1342 32.8754 10.0962 32.5092 9.6831C31.412 8.4453 28.4194 9.46776 27.4569 9.9233C27.3179 9.9893 27.1729 10.02 27.0294 10.02Z" fill="#CCD1D9"/>
<path d="M40.7183 32.2035C41.1079 32.5931 41.1079 33.2246 40.7183 33.6156C40.3286 34.0052 39.6958 34.0052 39.3062 33.6156C38.9167 33.2245 38.9167 32.5931 39.3062 32.2035C39.6957 31.8124 40.3286 31.8124 40.7183 32.2035Z" fill="#F5F7FA"/>
<path d="M33.0205 14.7015C32.5503 14.7015 32.1314 14.3691 32.0406 13.8915C32.0317 13.8446 31.8223 12.7402 31.7447 11.5683C31.6538 10.1694 31.7051 8.5097 32.9254 8.07901C33.838 7.75669 34.673 8.48186 34.9469 8.72065C35.3511 9.07071 35.8126 9.57463 36.3195 10.2192C37.1499 11.2739 37.8326 12.3578 37.8619 12.4032C38.1549 12.8705 38.0142 13.4872 37.5484 13.7802C37.0811 14.0747 36.4644 13.9341 36.17 13.4667C36.1656 13.4579 33.7765 12.3402 34.002 13.5151C34.106 14.0571 33.7515 14.58 33.2095 14.684C33.145 14.6957 33.082 14.7015 33.0205 14.7015Z" fill="#434A54"/>
<path d="M43.8413 19.4785C44.1036 19.0831 44.0508 18.5571 43.7139 18.2217L37.7227 12.229C37.4884 11.9946 37.1529 11.892 36.8277 11.9535L28.7887 13.5004L28.0372 18.7871C27.9932 19.0976 28.0987 19.4111 28.3199 19.6338L30.3179 21.6303C30.5055 21.8178 30.7589 21.9233 31.024 21.9233H32.8506L40.4546 24.5878L43.8413 19.4785Z" fill="#DA4453"/>
<path d="M21.0514 18.0049C23.3637 18.04 25.9821 17.271 28.2393 15.8954C29.6367 15.0444 30.7837 14.0293 31.5806 12.9629L20.9657 15.0049L12.0778 14.5611C14.4245 16.0317 18.0609 17.9609 21.0514 18.0049Z" fill="#434A54"/>
<path d="M42.5421 21.4385L43.8414 19.4785C44.1036 19.0831 44.0508 18.5571 43.714 18.2217L37.7228 12.229C37.4884 11.9946 37.1529 11.892 36.8277 11.9535L33.34 12.6244L42.5421 21.4385Z" fill="#CCD1D9"/>
<path d="M20.0377 28.9135C18.3853 28.9135 17.0414 27.5704 17.0414 25.918C17.0414 24.2656 18.3853 22.9224 20.0377 22.9224C21.6901 22.9224 23.034 24.2656 23.034 25.918C23.034 27.5704 21.69 28.9135 20.0377 28.9135Z" fill="#F5F7FA"/>
<path d="M28.733 22.2544L25.8048 31.0815L25.6525 20.1011L23.6346 18.6919L23.8177 31.9106H27.4102C27.504 31.8579 27.5962 31.8051 27.6871 31.7509L30.4409 23.4483L28.733 22.2544Z" fill="#E6E9ED"/>
</g>
<defs>
<clipPath id="clip0_3497_3829">
<rect width="48" height="48" fill="white" transform="translate(0.00146484)"/>
</clipPath>
</defs>
</svg>
