<svg width="512" height="512" viewBox="0 0 512 512" fill="none" xmlns="http://www.w3.org/2000/svg">
<path d="M252.758 219.504L252.633 263.649C252.581 282.085 240.459 300.492 216.256 314.557C167.512 342.884 88.3153 342.885 39.2524 314.558C14.6501 300.354 2.35405 281.692 2.40691 263.046L2.53199 218.901C2.4792 237.548 14.7752 256.209 39.3775 270.413C88.4404 298.74 167.637 298.739 216.381 270.412C240.584 256.347 252.706 237.94 252.758 219.504Z" fill="#DB9952"/>
<path d="M215.803 167.885C264.866 196.211 265.09 242.105 216.38 270.412C167.636 298.739 88.4393 298.74 39.3764 270.413C-9.54827 242.166 -9.80645 196.292 38.9376 167.965C87.6473 139.658 166.878 139.638 215.803 167.885Z" fill="#E8A658"/>
<path d="M127.983 278.246C97.7555 278.246 69.4437 271.509 48.2611 259.28C28.8647 248.079 18.1708 233.801 18.148 219.071C18.1277 204.435 28.6823 190.232 47.8659 179.082C68.8964 166.86 97.1373 160.129 127.385 160.129C157.576 160.129 185.822 166.84 206.921 179.021C226.386 190.26 237.118 204.574 237.138 219.332C237.158 233.963 226.617 248.155 207.448 259.295C186.42 271.514 158.197 278.246 127.983 278.246Z" fill="#FFD651"/>
<path d="M151.935 233.997L129.254 220.816C118.292 224.731 109.091 226.843 101.504 227.237C94.014 227.631 86.8765 225.857 80.1402 221.942C73.4036 218.027 70.2205 213.465 70.7361 208.227C71.2031 203.016 74.9746 198.088 82.1966 193.469L76.3809 190.089L83.8932 185.752L89.8541 189.216C99.1184 184.597 110.172 181.584 123.016 180.176L126.166 190.822C117.36 191.695 109.473 193.61 102.551 196.595L124.505 209.353L124.847 209.156C136.003 205.185 145.448 202.988 153.279 202.622C161.06 202.284 168.392 204.059 175.225 208.03C182.01 211.973 185.144 216.62 184.531 221.915C184.015 227.209 179.902 232.279 172.29 237.123L180.674 241.995L173.162 246.332L164.632 241.376C152.835 246.952 138.912 250.05 123.009 250.697L121.416 239.826C133.672 239.319 143.845 237.376 151.935 233.997ZM159.786 229.857C163.155 227.463 165.016 225.097 165.418 222.788C165.868 220.506 164.712 218.535 161.998 216.958C159.284 215.38 156.226 214.62 152.919 214.676C149.564 214.761 144.891 215.718 138.754 217.634L159.786 229.857ZM94.7001 200.735C91.4789 202.932 89.7644 205.157 89.5091 207.325C89.2536 209.494 90.4591 211.325 93.0762 212.846C95.6931 214.366 98.509 215.099 101.621 215.099C104.684 215.07 109.114 214.197 114.909 212.479L94.7001 200.735Z" fill="#E8A658"/>
<path d="M263.931 163.637L263.806 207.782C263.753 226.218 251.632 244.625 227.429 258.691C178.685 287.018 99.4881 287.018 50.4252 258.691C25.8229 244.487 13.5269 225.826 13.5798 207.179L13.7048 163.035C13.652 181.681 25.9481 200.342 50.5504 214.547C99.6133 242.873 178.81 242.873 227.554 214.546C251.757 200.481 263.879 182.074 263.931 163.637Z" fill="#DB9952"/>
<path d="M226.978 112.018C276.041 140.345 276.265 186.239 227.555 214.546C178.811 242.873 99.6146 242.873 50.5517 214.547C1.62703 186.3 1.36884 140.426 50.1129 112.099C98.8226 83.7917 178.054 83.7714 226.978 112.018Z" fill="#E8A658"/>
<path d="M139.157 222.379C108.93 222.379 80.6185 215.642 59.4359 203.413C40.0395 192.213 29.3456 177.934 29.3228 163.204C29.3025 148.568 39.8571 134.365 59.0407 123.215C80.0712 110.994 108.312 104.262 138.559 104.262C168.751 104.262 196.997 110.973 218.096 123.154C237.561 134.393 248.293 148.707 248.313 163.465C248.333 178.096 237.791 192.289 218.623 203.428C197.595 215.648 169.372 222.379 139.157 222.379Z" fill="#FFD651"/>
<path d="M163.11 178.13L140.429 164.949C129.467 168.864 120.266 170.976 112.679 171.37C105.189 171.765 98.0513 169.99 91.315 166.076C84.5785 162.161 81.3953 157.598 81.9109 152.36C82.3779 147.15 86.1494 142.221 93.3714 137.602L87.5557 134.223L95.068 129.885L101.029 133.35C110.293 128.731 121.347 125.717 134.191 124.309L137.34 134.955C128.535 135.828 120.647 137.743 113.726 140.728L135.68 153.487L136.022 153.29C147.178 149.319 156.623 147.122 164.453 146.756C172.235 146.418 179.567 148.192 186.4 152.163C193.185 156.106 196.319 160.753 195.706 166.048C195.19 171.343 191.077 176.412 183.465 181.256L191.849 186.129L184.337 190.466L175.807 185.509C164.01 191.085 150.086 194.183 134.183 194.831L132.591 183.96C144.847 183.453 155.02 181.51 163.11 178.13ZM170.961 173.99C174.33 171.596 176.191 169.23 176.593 166.921C177.043 164.64 175.887 162.668 173.173 161.091C170.459 159.514 167.4 158.753 164.094 158.81C160.738 158.894 156.065 159.852 149.928 161.767L170.961 173.99ZM105.875 144.869C102.654 147.065 100.939 149.29 100.684 151.459C100.428 153.627 101.634 155.458 104.251 156.979C106.868 158.5 109.684 159.232 112.796 159.232C115.859 159.204 120.288 158.331 126.084 156.613L105.875 144.869Z" fill="#E8A658"/>
<path d="M275.102 107.771L274.977 151.915C274.925 170.352 262.803 188.759 238.6 202.824C189.856 231.151 110.66 231.152 61.5966 202.825C36.9943 188.621 24.6983 169.959 24.7511 151.313L24.8762 107.168C24.8234 125.815 37.1195 144.476 61.7217 158.68C110.785 187.007 189.981 187.006 238.726 158.679C262.928 144.614 275.05 126.207 275.102 107.771Z" fill="#DB9952"/>
<path d="M238.151 56.1517C287.214 84.4783 287.438 130.372 238.728 158.679C189.984 187.006 110.787 187.007 61.7245 158.68C12.7999 130.433 12.5417 84.5594 61.2857 56.2324C109.995 27.9253 189.227 27.9049 238.151 56.1517Z" fill="#E8A658"/>
<path d="M150.331 166.513C120.104 166.513 91.7918 159.776 70.6093 147.547C51.2128 136.346 40.5189 122.067 40.4961 107.338C40.4759 92.7016 51.0304 78.4987 70.214 67.3488C91.2446 55.1271 119.485 48.3956 149.733 48.3956C179.925 48.3956 208.17 55.1069 229.269 67.288C248.734 78.5266 259.466 92.8409 259.486 107.599C259.507 122.23 248.965 136.422 229.796 147.562C208.768 159.781 180.545 166.513 150.331 166.513Z" fill="#FFD651"/>
<path d="M174.28 122.264L151.6 109.083C140.638 112.998 131.436 115.11 123.849 115.504C116.359 115.898 109.222 114.124 102.485 110.209C95.7489 106.294 92.5657 101.732 93.0813 96.4935C93.5483 91.2831 97.3198 86.3545 104.542 81.7359L98.7261 78.3561L106.238 74.0189L112.199 77.4831C121.464 72.8643 132.518 69.8509 145.361 68.4427L148.511 79.0887C139.705 79.9616 131.818 81.8767 124.897 84.862L146.851 97.6203L147.192 97.4231C158.349 93.4521 167.794 91.2553 175.624 90.8893C183.405 90.5514 190.737 92.3257 197.571 96.2968C204.355 100.24 207.489 104.887 206.876 110.182C206.36 115.476 202.248 120.546 194.635 125.39L203.019 130.262L195.507 134.599L186.978 129.643C175.18 135.219 161.257 138.317 145.354 138.964L143.762 128.093C156.017 127.586 166.19 125.643 174.28 122.264ZM182.132 118.123C185.5 115.73 187.361 113.364 187.763 111.054C188.213 108.773 187.058 106.802 184.344 105.225C181.63 103.647 178.571 102.887 175.264 102.943C171.909 103.028 167.236 103.985 161.099 105.9L182.132 118.123ZM117.045 89.0022C113.824 91.1988 112.11 93.4238 111.854 95.5924C111.599 97.7609 112.804 99.5915 115.421 101.112C118.038 102.633 120.854 103.366 123.966 103.366C127.029 103.337 131.459 102.464 137.254 100.746L117.045 89.0022Z" fill="#E8A658"/>
<path d="M506.559 272.857L344.503 179.274C340.479 176.95 333.96 176.95 329.936 179.274L293.545 200.417L282.209 206.992L225.356 240.038L214.076 246.613L35.8652 350.173C33.8811 351.307 32.8608 352.837 32.8608 354.368C32.8608 355.898 33.8811 357.429 35.9219 358.619L197.978 452.203C201.946 454.527 208.521 454.527 212.545 452.203L336.284 380.272L347.224 373.923L404.644 340.537L415.073 334.529L415.583 334.188L506.616 281.303C507.07 281.02 507.523 280.736 507.863 280.34C508.43 279.886 508.827 279.319 509.11 278.809C509.167 278.753 509.167 278.696 509.167 278.639C509.28 278.356 509.393 278.129 509.45 277.845C509.507 277.732 509.564 277.619 509.564 277.505V277.052C509.564 275.522 508.6 273.991 506.559 272.857ZM229.21 255.342L240.49 248.824H240.547L297.343 215.721H297.4L308.68 209.202L337.304 192.538L483.773 277.052L415.583 316.674L415.073 316.957L404.644 323.022L347.224 356.408L336.284 362.757L205.177 438.939L58.7649 354.424L229.21 255.342Z" fill="#7DD17D"/>
<path d="M441.021 269.799C434.118 273.81 434.155 280.329 441.103 284.341L217.582 414.238C210.633 410.226 199.379 410.226 192.475 414.238L101.421 361.668C108.324 357.656 108.288 351.137 101.339 347.125L324.861 217.228C331.809 221.24 343.064 221.24 349.967 217.228L441.021 269.799Z" fill="#7DD17D"/>
<path d="M337.304 192.538L308.679 209.202L297.4 215.721H297.343L240.547 248.824H240.49L229.21 255.342L58.7646 354.424L205.177 438.939L336.284 362.757L347.224 356.408L404.643 323.022L415.073 316.957L415.583 316.673L483.772 277.052L337.304 192.538ZM415.073 299.498L404.643 305.563L347.224 338.893L336.284 345.242L217.59 414.225C210.618 410.2 199.395 410.2 192.48 414.225L101.447 361.68C108.305 357.655 108.305 351.136 101.334 347.112L244.287 264.071L255.568 257.496L312.477 224.45L323.757 217.875L324.834 217.251C331.806 221.219 343.086 221.219 349.944 217.251L441.034 269.797C434.119 273.821 434.175 280.339 441.09 284.364L415.583 299.158L415.073 299.498Z" fill="white"/>
<path d="M509.563 277.109V277.505L509.506 300.179C509.506 301.709 508.486 303.24 506.502 304.373L415.583 357.202L415.073 357.542L404.643 363.607L347.223 396.937L336.284 403.342L212.488 475.273C208.464 477.596 201.889 477.596 197.864 475.273L35.8081 381.689C33.8243 380.555 32.8037 379.025 32.8037 377.438L32.8605 354.368C32.8605 355.898 33.8807 357.429 35.9215 358.619L197.978 452.146C201.945 454.47 208.52 454.47 212.545 452.146L336.284 380.215L347.223 373.867L404.643 340.48L415.073 334.415L415.583 334.132L506.559 281.247C507.069 280.963 507.466 280.68 507.862 280.34C508.429 279.886 508.826 279.319 509.11 278.809C509.166 278.753 509.166 278.696 509.166 278.639C509.279 278.356 509.393 278.129 509.45 277.846C509.506 277.619 509.563 277.336 509.563 277.109Z" fill="#69B769"/>
<path d="M338.119 254.819C330.182 259.402 332.458 268.105 343.076 274.275C353.728 280.466 368.711 281.792 376.648 277.21C384.55 272.647 382.378 263.924 371.726 257.734C361.108 251.564 346.022 250.257 338.119 254.819Z" fill="white"/>
<path d="M165.782 354.249C157.845 358.832 160.121 367.534 170.739 373.705C181.391 379.895 196.374 381.222 204.311 376.639C212.213 372.077 210.041 363.354 199.389 357.164C188.771 350.993 173.685 349.687 165.782 354.249Z" fill="white"/>
<path d="M506.547 241.014C510.564 243.333 510.622 247.115 506.595 249.455L212.53 420.348C208.539 422.667 201.974 422.667 197.957 420.348L35.8975 326.783C31.8803 324.463 31.859 320.661 35.85 318.341L329.915 147.449C333.942 145.109 340.471 145.13 344.488 147.449L506.547 241.014ZM205.205 407.122L483.773 245.235L337.312 160.675L58.7435 322.562L205.205 407.122Z" fill="#7DD17D"/>
<path d="M441.024 237.964C434.12 241.976 434.157 248.495 441.105 252.506L217.584 382.403C210.636 378.392 199.381 378.392 192.478 382.403L101.423 329.833C108.327 325.821 108.29 319.302 101.342 315.29L324.863 185.394C331.812 189.405 343.066 189.405 349.969 185.393L441.024 237.964Z" fill="#7DD17D"/>
<path d="M337.312 160.675L483.773 245.235L205.205 407.122L58.7437 322.562L337.312 160.675ZM217.583 382.403L441.104 252.506C434.156 248.495 434.119 241.976 441.023 237.964L349.968 185.393C343.065 189.405 331.81 189.405 324.862 185.394L101.341 315.29C108.289 319.302 108.326 325.821 101.422 329.833L192.477 382.403C199.38 378.392 210.635 378.392 217.583 382.403Z" fill="white"/>
<path d="M509.586 245.239L509.53 268.365C509.53 269.896 508.509 271.426 506.525 272.56L212.492 443.45C208.467 445.775 201.892 445.775 197.867 443.45L35.8115 349.867C33.8274 348.733 32.8071 347.203 32.8071 345.615L32.8639 322.546C32.8639 324.076 33.8841 325.606 35.9246 326.797L197.981 420.324C201.949 422.648 208.524 422.648 212.549 420.324L506.582 249.433C508.566 248.3 509.586 246.769 509.586 245.239Z" fill="#69B769"/>
<path d="M338.122 222.985C330.185 227.567 332.461 236.27 343.079 242.441C353.731 248.631 368.713 249.958 376.65 245.375C384.553 240.813 382.381 232.09 371.729 225.899C361.111 219.729 346.024 218.422 338.122 222.985Z" fill="white"/>
<path d="M165.779 322.415C157.842 326.997 160.118 335.7 170.736 341.87C181.388 348.061 196.37 349.387 204.307 344.805C212.21 340.242 210.038 331.52 199.386 325.329C188.768 319.159 173.681 317.852 165.779 322.415Z" fill="white"/>
<path d="M506.555 209.203L344.499 115.619C340.474 113.295 333.956 113.295 329.931 115.619L238.615 168.731H238.559L227.278 175.249L170.369 208.352L159.146 214.871L35.8608 286.518C33.8767 287.652 32.8564 289.182 32.8564 290.713C32.8564 292.243 33.8767 293.773 35.9175 294.964L197.974 388.491C201.941 390.815 208.516 390.815 212.541 388.491L335.713 316.9H335.77L347.106 310.325L403.902 277.279H403.959L415.239 270.76L506.612 217.648C507.065 217.365 507.518 217.082 507.858 216.685C508.142 216.401 508.426 216.174 508.595 215.891C508.709 215.778 508.822 215.664 508.879 215.494C509.162 215.097 509.332 214.701 509.446 214.304C509.502 214.191 509.559 214.02 509.559 213.851V213.397C509.559 211.867 508.595 210.336 506.555 209.203ZM331.972 301.596L320.692 308.171L205.172 375.284L58.7605 290.713L174.223 223.6L185.503 217.082L242.413 183.978L253.636 177.403H253.693L337.3 128.826L483.768 213.397L400.161 262.031H400.105L388.825 268.55L331.972 301.596Z" fill="#7DD17D"/>
<path d="M441.021 206.129C434.117 210.141 434.154 216.66 441.102 220.671L217.581 350.568C210.633 346.557 199.378 346.557 192.475 350.569L101.421 297.998C108.324 293.986 108.287 287.467 101.339 283.456L324.86 153.559C331.809 157.57 343.063 157.57 349.966 153.559L441.021 206.129Z" fill="#7DD17D"/>
<path d="M337.303 128.826L253.696 177.403H253.639L242.416 183.978L185.506 217.081L174.226 223.6L58.7632 290.713L205.175 375.284L320.695 308.171L331.975 301.596L388.827 268.55L400.107 262.031H400.164L483.771 213.397L337.303 128.826ZM384.973 253.245L373.693 259.82L316.84 292.867L305.56 299.442L217.589 350.57C210.616 346.545 199.393 346.545 192.478 350.57L101.446 298.025C108.304 294 108.304 287.482 101.332 283.457L189.304 232.329L200.584 225.754L257.493 192.708L268.773 186.132L324.832 153.54C331.804 157.564 343.084 157.564 349.943 153.54L441.032 206.142C434.117 210.166 434.174 216.685 441.089 220.652L384.973 253.245Z" fill="white"/>
<path d="M509.582 213.404L509.525 236.53C509.525 238.061 508.505 239.591 506.521 240.725L212.487 411.616C208.463 413.94 201.888 413.94 197.863 411.616L35.8071 318.032C33.823 316.898 32.8027 315.368 32.8027 313.781L32.8595 290.711C32.8595 292.241 33.8797 293.772 35.9202 294.962L197.977 388.489C201.944 390.813 208.52 390.813 212.544 388.489L506.578 217.598C508.561 216.465 509.582 214.934 509.582 213.404Z" fill="#69B769"/>
<path d="M338.117 191.15C330.18 195.732 332.456 204.435 343.074 210.606C353.726 216.796 368.708 218.123 376.645 213.54C384.548 208.978 382.376 200.255 371.724 194.064C361.106 187.894 346.019 186.588 338.117 191.15Z" fill="white"/>
<path d="M165.778 290.58C157.84 295.162 160.116 303.865 170.734 310.035C181.386 316.226 196.369 317.552 204.306 312.97C212.208 308.408 210.036 299.685 199.384 293.494C188.766 287.324 173.68 286.017 165.778 290.58Z" fill="white"/>
<path d="M415.583 270.93L415.073 271.214L404.643 277.222L404.247 277.449L347.224 310.381V310.438L341.215 313.896L336.284 316.73L335.887 316.957L335.774 316.9H335.717L320.696 308.171L305.562 299.442L189.305 232.329L174.228 223.6L159.15 214.871L170.373 208.352L227.283 175.249L238.563 168.731H238.619L253.64 177.403H253.697L268.775 186.132L384.974 253.245L400.109 262.031H400.165L415.186 270.703L415.243 270.76L415.583 270.93Z" fill="#EFC348"/>
<path d="M347.223 310.381L337.133 316.22L336.283 316.73L335.886 316.957L335.773 316.9L320.695 308.171L305.561 299.442L189.304 232.329L174.227 223.6L159.149 214.871L170.372 208.352L185.506 217.081L200.584 225.754L316.841 292.867L331.975 301.596L347.052 310.268L347.109 310.325L347.223 310.381Z" fill="#FFD651"/>
<path d="M415.582 270.93L415.072 271.214L404.642 277.222L404.246 277.449L403.962 277.279H403.905L388.828 268.55L373.693 259.82L257.494 192.708L242.416 183.978L227.281 175.249L238.562 168.731H238.618L253.639 177.403H253.696L268.773 186.132L384.973 253.245L400.108 262.031H400.164L415.185 270.703L415.242 270.76L415.582 270.93Z" fill="#FFD651"/>
<path d="M415.068 271.214V357.542L404.638 363.607L347.219 396.937L336.279 403.342V316.73L341.21 313.896L347.219 310.438V310.381L404.242 277.449L404.638 277.222L415.068 271.214Z" fill="#DDB040"/>
<path d="M347.219 310.381V396.936L336.28 403.341V316.73L341.211 313.896L347.219 310.381Z" fill="#EFC348"/>
<path d="M415.58 270.93V357.201L415.07 357.542L404.64 363.607V277.222L415.07 271.213L415.58 270.93Z" fill="#EFC348"/>
</svg>
