<svg width="512" height="512" viewBox="0 0 512 512" fill="none" xmlns="http://www.w3.org/2000/svg">
<path d="M199.544 144.008H312.456C314.683 143.963 316.839 143.22 318.62 141.884C320.402 140.547 321.718 138.685 322.384 136.56C321.718 134.435 320.402 132.573 318.62 131.236C316.839 129.9 314.683 129.157 312.456 129.112H199.544C197.318 129.157 195.162 129.9 193.38 131.236C191.599 132.573 190.282 134.435 189.616 136.56C190.282 138.685 191.599 140.547 193.38 141.884C195.162 143.22 197.318 143.963 199.544 144.008Z" fill="#A80132"/>
<path d="M199.544 121.664H312.456C314.683 121.619 316.839 120.876 318.62 119.54C320.402 118.203 321.718 116.341 322.384 114.216C321.718 112.091 320.402 110.229 318.62 108.892C316.839 107.556 314.683 106.813 312.456 106.768H199.544C197.318 106.813 195.162 107.556 193.38 108.892C191.599 110.229 190.282 112.091 189.616 114.216C190.282 116.341 191.599 118.203 193.38 119.54C195.162 120.876 197.318 121.619 199.544 121.664Z" fill="#A80132"/>
<path d="M184.038 41.7469C184.597 42.1268 185.185 42.4917 185.833 42.879C186.101 43.0354 186.384 43.1844 186.667 43.3408C187.412 43.7281 188.157 44.0856 188.983 44.4952C189.229 44.6144 189.482 44.7336 189.728 44.8453C195.724 47.3486 201.964 49.2207 208.348 50.4313L208.616 50.4834C210.553 50.8782 212.571 51.2282 214.686 51.6006C228.353 53.7241 242.17 54.7379 256.001 54.632C297.113 54.632 323.032 47.184 330.48 39.736C330.48 39.736 315.584 24.84 256.001 24.84C196.417 24.84 181.521 39.736 181.521 39.736C182.103 40.3008 182.726 40.8235 183.383 41.3C183.584 41.449 183.822 41.598 184.038 41.7469Z" fill="#DE8800"/>
<path d="M189.713 44.8453C189.452 44.7336 189.199 44.6144 188.968 44.4952C189.236 44.6144 189.475 44.7336 189.713 44.8453Z" fill="#FFC608"/>
<path d="M214.694 51.6006L217.271 60.5904C219.839 69.6005 225.274 77.5283 232.751 83.1728C240.229 88.8174 249.343 91.8713 258.712 91.872H291.222C300.352 91.8362 309.179 88.5907 316.158 82.7035L330.48 39.736C323.032 47.184 297.113 54.632 256 54.632C242.172 54.7375 228.358 53.7237 214.694 51.6006Z" fill="#FFC608"/>
<path d="M293.687 151.456H248.612C218.442 168.534 193.487 193.499 176.42 223.676C159.353 253.852 150.818 288.103 151.729 322.76C151.729 464.272 442.201 441.928 442.201 374.896C442.201 320.972 378.446 184.823 293.687 151.456Z" fill="#FFC608"/>
<path d="M185.833 42.879C185.185 42.5066 184.596 42.1342 184.038 41.7469C184.596 42.1268 185.185 42.5066 185.833 42.879Z" fill="#F09413"/>
<path d="M214.694 51.6007C212.578 51.2581 210.56 50.8559 208.624 50.4835C210.567 50.908 212.578 51.2581 214.694 51.6007Z" fill="#F09413"/>
<path d="M188.968 44.4953C188.141 44.1154 187.374 43.7505 186.652 43.3408C187.382 43.7281 188.156 44.1154 188.968 44.4953Z" fill="#F09413"/>
<path d="M324.82 313.45C323.634 316.41 323.027 319.571 323.032 322.76V427.255C315.659 427.479 308.211 427.479 300.688 427.106V345.104C300.688 332.74 309.924 321.568 324.82 313.45Z" fill="#F09413"/>
<path d="M322.384 136.56C321.719 134.435 320.402 132.573 318.62 131.236C316.839 129.9 314.683 129.157 312.456 129.112C315.339 129.028 318.07 127.805 320.053 125.711C322.035 123.617 323.107 120.823 323.032 117.94C323.021 116.672 322.803 115.414 322.384 114.216C321.719 112.091 320.402 110.229 318.62 108.892C316.839 107.556 314.683 106.813 312.456 106.768H199.545C197.318 106.813 195.162 107.556 193.38 108.892C191.599 110.229 190.282 112.091 189.616 114.216C189.198 115.414 188.979 116.672 188.968 117.94C188.894 120.823 189.966 123.617 191.948 125.711C193.931 127.805 196.662 129.028 199.545 129.112C197.318 129.157 195.162 129.9 193.38 131.236C191.599 132.573 190.282 134.435 189.616 136.56C189.198 137.758 188.979 139.016 188.968 140.284C188.894 143.167 189.966 145.961 191.948 148.055C193.931 150.149 196.662 151.372 199.545 151.456H312.456C315.339 151.372 318.07 150.149 320.053 148.055C322.035 145.961 323.107 143.167 323.032 140.284C323.021 139.016 322.803 137.758 322.384 136.56Z" fill="#A80132"/>
<path d="M315.83 47.2734C296.415 41.5948 276.217 39.0503 256 39.736C235.783 39.0503 215.586 41.5948 196.17 47.2734C215.635 52.6971 235.802 55.1775 256 54.632C276.199 55.1775 296.365 52.6971 315.83 47.2734Z" fill="#C97C10"/>
<path d="M301.88 129.112H312.456C315.339 129.028 318.07 127.805 320.053 125.711C322.035 123.617 323.107 120.823 323.032 117.94C323.021 116.672 322.803 115.414 322.384 114.216C321.719 116.341 320.402 118.203 318.62 119.54C316.839 120.876 314.683 121.619 312.456 121.664H199.545C197.318 121.619 195.162 120.876 193.38 119.54C191.599 118.203 190.282 116.341 189.616 114.216C189.198 115.414 188.979 116.672 188.968 117.94C188.894 120.823 189.966 123.617 191.948 125.711C193.931 127.805 196.662 129.028 199.545 129.112H301.88Z" fill="#7D0126"/>
<path d="M293.687 151.456H312.456C315.339 151.372 318.07 150.149 320.053 148.055C322.035 145.961 323.107 143.167 323.032 140.284C323.021 139.016 322.803 137.758 322.384 136.56C321.719 138.685 320.402 140.547 318.62 141.884C316.839 143.22 314.683 143.963 312.456 144.008H199.545C197.318 143.963 195.162 143.22 193.38 141.884C191.599 140.547 190.282 138.685 189.616 136.56C189.198 137.758 188.979 139.016 188.968 140.284C188.894 143.167 189.966 145.961 191.948 148.055C193.931 150.149 196.662 151.372 199.545 151.456H293.687Z" fill="#7D0126"/>
<path d="M301.88 106.768H308.136L316.158 82.7035C309.179 88.5907 300.352 91.8362 291.222 91.872H258.712C249.343 91.8713 240.229 88.8174 232.751 83.1729C225.274 77.5283 219.839 69.6005 217.271 60.5904L214.694 51.5783C212.579 51.2357 210.56 50.8335 208.624 50.4611L208.333 50.4313C201.95 49.2207 195.709 47.3486 189.713 44.8453C189.445 44.7336 189.207 44.6144 188.969 44.4952C188.142 44.1154 187.367 43.7504 186.652 43.3408C186.369 43.1844 186.086 43.0354 185.818 42.879C185.17 42.5066 184.582 42.1342 184.023 41.7469C183.807 41.598 183.569 41.449 183.368 41.3C182.716 40.8229 182.099 40.3002 181.521 39.736L203.865 106.768H301.88Z" fill="#F09413"/>
<path d="M151.728 322.76C150.818 288.103 159.353 253.852 176.42 223.676C193.487 193.499 218.442 168.534 248.612 151.456H218.313C133.555 184.823 69.8003 320.972 69.8003 374.896C69.8003 436.565 153.143 486.616 256 486.616C358.857 486.616 442.2 436.565 442.2 374.896C442.2 441.928 151.728 464.272 151.728 322.76Z" fill="#FF9C00"/>
<path d="M286.209 322.09L263.448 310.709V248.28H278.344V255.728H293.24V240.832C293.24 238.857 292.455 236.962 291.059 235.565C289.662 234.169 287.767 233.384 285.792 233.384H263.448V218.488H248.552V233.384H243.532C234.595 233.383 225.92 236.399 218.912 241.945C211.904 247.491 206.973 255.24 204.92 263.938C202.867 272.636 203.811 281.772 207.599 289.866C211.387 297.961 217.797 304.539 225.791 308.534L248.552 319.915V382.344H218.76V374.896H203.864V389.792C203.864 391.767 204.649 393.662 206.046 395.059C207.442 396.455 209.337 397.24 211.312 397.24H248.552V412.136H263.448V397.24H268.468C277.405 397.241 286.08 394.225 293.088 388.679C300.097 383.133 305.027 375.384 307.08 366.686C309.133 357.988 308.19 348.852 304.402 340.758C300.613 332.663 294.203 326.085 286.209 322.09ZM232.45 295.202C227.462 292.705 223.463 288.597 221.1 283.543C218.738 278.49 218.15 272.787 219.432 267.358C220.714 261.929 223.792 257.091 228.165 253.629C232.539 250.167 237.954 248.282 243.532 248.28H248.552V303.261L232.45 295.202ZM268.468 382.344H263.448V327.363L279.551 335.422C284.539 337.919 288.538 342.027 290.9 347.081C293.263 352.134 293.85 357.837 292.568 363.266C291.286 368.695 288.209 373.533 283.835 376.995C279.461 380.457 274.047 382.342 268.468 382.344Z" fill="#FFDF75"/>
<path d="M263.449 397.24V404.442C269.106 404.098 274.623 402.539 279.623 399.869C284.623 397.199 288.988 393.483 292.421 388.973C285.57 394.3 277.147 397.207 268.469 397.24H263.449Z" fill="#FFAA00"/>
<path d="M248.553 397.24H211.313C209.337 397.24 207.443 396.455 206.046 395.058C204.649 393.662 203.865 391.767 203.865 389.792V382.344H196.417V397.24C196.417 399.215 197.201 401.11 198.598 402.506C199.995 403.903 201.889 404.688 203.865 404.688H241.105V419.584H256.001V412.136H248.553V397.24Z" fill="#FFAA00"/>
<path d="M278.345 248.28H263.449V255.728H270.897V263.176H285.793V255.728H278.345V248.28Z" fill="#FFAA00"/>
<path d="M248.552 233.384V225.936H241.104V233.63C241.924 233.578 242.698 233.384 243.533 233.384H248.552Z" fill="#FFAA00"/>
<path d="M248.552 319.915L225.791 308.534C220.558 305.948 215.966 302.231 212.346 297.652C208.727 293.073 206.171 287.746 204.863 282.057C203.556 276.368 203.53 270.46 204.787 264.76C206.044 259.06 208.553 253.71 212.132 249.099C206.757 253.15 202.507 258.509 199.786 264.665C197.065 270.821 195.963 277.571 196.586 284.273C197.208 290.975 199.534 297.406 203.342 302.956C207.15 308.506 212.314 312.99 218.343 315.982L241.104 327.363V382.344H248.552V319.915Z" fill="#FFAA00"/>
<path d="M222.73 259.698C226.706 257.114 231.344 255.735 236.085 255.728H241.105V299.537L248.553 303.261V248.28H243.533C239.386 248.288 235.308 249.337 231.673 251.332C228.039 253.327 224.963 256.204 222.73 259.698Z" fill="#FFAA00"/>
<path d="M293.241 357.572C293.255 352.97 291.981 348.455 289.561 344.54C287.142 340.626 283.674 337.467 279.551 335.422L263.449 327.363V338.535L272.103 342.862C275.213 344.413 277.961 346.603 280.166 349.289C282.37 351.975 283.983 355.097 284.897 358.45C285.811 361.803 286.006 365.311 285.47 368.744C284.934 372.178 283.679 375.46 281.786 378.374C285.286 376.146 288.17 373.072 290.172 369.437C292.174 365.802 293.229 361.722 293.241 357.572Z" fill="#FFAA00"/>
<path d="M323.032 441.928V322.76C323.027 319.571 323.634 316.41 324.82 313.45C309.924 321.568 300.688 332.74 300.688 345.104V464.272C300.836 470.866 303.257 477.207 307.541 482.222C320.506 480.081 333.282 476.918 345.749 472.763C331.672 464.793 323.032 453.919 323.032 441.928Z" fill="#FF9C00"/>
<path d="M302.178 336.643C301.203 339.358 300.699 342.219 300.688 345.104V380.542C305.257 374.195 307.838 366.634 308.103 358.819C308.368 351.003 306.306 343.285 302.178 336.643Z" fill="#FFC052"/>
<path d="M486.888 412.136V441.928C486.888 466.581 450.244 486.616 404.96 486.616C359.676 486.616 323.032 466.581 323.032 441.928V412.136C323.032 436.789 359.676 456.824 404.96 456.824C450.244 456.824 486.888 436.789 486.888 412.136Z" fill="#FFCB52"/>
<path d="M486.888 352.552V382.344C486.888 406.997 450.244 427.032 404.96 427.032C359.676 427.032 323.032 406.997 323.032 382.344V352.552C323.032 377.205 359.676 397.24 404.96 397.24C450.244 397.24 486.888 377.205 486.888 352.552Z" fill="#FFCB52"/>
<path d="M486.888 382.344V412.136C486.888 436.789 450.244 456.824 404.96 456.824C359.676 456.824 323.032 436.789 323.032 412.136V382.344C323.032 406.997 359.676 427.032 404.96 427.032C450.244 427.032 486.888 406.997 486.888 382.344Z" fill="#F09413"/>
<path d="M486.888 322.76V352.552C486.888 377.205 450.244 397.24 404.96 397.24C359.676 397.24 323.032 377.205 323.032 352.552V322.76C323.032 347.413 359.676 367.448 404.96 367.448C450.244 367.448 486.888 347.413 486.888 322.76Z" fill="#F09413"/>
<path d="M486.888 322.76C486.888 347.413 450.244 367.448 404.96 367.448C359.676 367.448 323.032 347.413 323.032 322.76C323.032 298.107 359.676 278.072 404.96 278.072C450.244 278.072 486.888 298.107 486.888 322.76ZM457.096 322.76C457.096 310.396 433.784 300.416 404.96 300.416C376.136 300.416 352.824 310.396 352.824 322.76C352.824 335.124 376.136 345.104 404.96 345.104C433.784 345.104 457.096 335.124 457.096 322.76Z" fill="#FFC052"/>
<path d="M404.96 345.104C433.754 345.104 457.096 335.1 457.096 322.76C457.096 310.42 433.754 300.416 404.96 300.416C376.166 300.416 352.824 310.42 352.824 322.76C352.824 335.1 376.166 345.104 404.96 345.104Z" fill="#FFDF75"/>
<path d="M457.096 322.76C457.108 324.04 456.855 325.308 456.351 326.484C452.255 315.908 430.805 307.864 404.96 307.864C379.116 307.864 357.665 315.908 353.569 326.484C353.066 325.308 352.812 324.04 352.824 322.76C352.824 310.396 376.136 300.416 404.96 300.416C433.784 300.416 457.096 310.396 457.096 322.76Z" fill="#C97C10"/>
<path d="M486.888 337.656V352.552C486.888 377.205 450.244 397.24 404.96 397.24C387.061 397.507 369.302 394.032 352.824 387.036C334.651 378.843 323.032 366.405 323.032 352.552V322.76C323.032 336.613 334.651 349.051 352.824 357.244C352.801 361.85 354.29 366.337 357.061 370.016C359.832 373.696 363.734 376.365 368.167 377.614C380.168 380.815 392.54 382.405 404.96 382.344C450.244 382.344 486.888 362.309 486.888 337.656Z" fill="#DE8800"/>
<path d="M486.888 367.448V382.344C486.888 406.997 450.244 427.032 404.96 427.032C387.061 427.299 369.302 423.824 352.824 416.828C334.651 408.635 323.032 396.197 323.032 382.344V352.552C323.032 366.405 334.651 378.843 352.824 387.036C352.801 391.642 354.29 396.129 357.061 399.808C359.832 403.488 363.734 406.157 368.167 407.407C380.168 410.607 392.54 412.197 404.96 412.136C450.244 412.136 486.888 392.101 486.888 367.448Z" fill="#DE8800"/>
<path d="M486.888 397.24V412.136C486.888 436.789 450.244 456.824 404.96 456.824C387.061 457.091 369.302 453.616 352.824 446.62C334.651 438.427 323.032 425.989 323.032 412.136V382.344C323.032 396.197 334.651 408.635 352.824 416.828C352.801 421.434 354.29 425.921 357.061 429.6C359.832 433.28 363.734 435.949 368.167 437.199C380.168 440.399 392.54 441.989 404.96 441.928C450.244 441.928 486.888 421.893 486.888 397.24Z" fill="#DE8800"/>
<path d="M486.888 427.032V441.928C486.888 466.581 450.244 486.616 404.96 486.616C387.061 486.883 369.302 483.408 352.824 476.412C334.651 468.219 323.032 455.781 323.032 441.928V412.136C323.032 425.989 334.651 438.427 352.824 446.62C352.801 451.226 354.29 455.713 357.061 459.392C359.832 463.072 363.734 465.741 368.167 466.99C380.168 470.191 392.54 471.781 404.96 471.72C450.244 471.72 486.888 451.685 486.888 427.032Z" fill="#DE8800"/>
</svg>
