<svg width="36" height="36" viewBox="0 0 36 36" fill="none" xmlns="http://www.w3.org/2000/svg">
<path d="M19.5468 2.01489H4.17188V5.46966H19.5468V2.01489Z" fill="#F2B851"/>
<path d="M22.9464 10.0392V5.06909H6.32171C5.54773 5.06909 4.91888 4.43686 4.91888 3.65951C4.91888 2.88216 5.54886 2.24993 6.32171 2.24993H22.1938V0H6.32171C4.30802 0 2.66895 1.64132 2.66895 3.65951V21.3541C2.66895 22.9482 3.11781 24.171 4.00315 24.9888C4.96162 25.8753 6.09559 25.9608 6.4702 25.9608C6.53995 25.9608 6.58382 25.9574 6.59395 25.9563H13.0524V23.7064" fill="#25B6D2"/>
<path d="M30.09 11.918H14.7151V15.3727H30.09V11.918Z" fill="#F2B851"/>
<path d="M20.1689 6.94113C20.0632 6.84326 17.6119 4.51908 19.9619 0.543457L21.898 1.68867C20.5278 4.00835 21.5841 5.17494 21.7079 5.30093L20.1689 6.94113Z" fill="#25B6D2"/>
<path d="M31.9169 15.1069C31.6581 14.7053 31.3161 13.7772 32.0024 12.2878H32.5784V10.0378H22.9464H20.6965H16.7062C14.6925 10.0378 13.0535 11.6792 13.0535 13.6974V23.7073V25.9572V31.393C13.0535 32.9871 13.5023 34.21 14.3888 35.0278C15.3461 35.9143 16.4801 35.9998 16.8547 35.9998C16.9245 35.9998 16.9683 35.9964 16.9785 35.9953H33.331V15.1069H31.9169ZM16.7062 15.1069C15.9323 15.1069 15.3034 14.4747 15.3034 13.6974C15.3034 12.92 15.9334 12.2878 16.7062 12.2878H29.5882C29.2451 13.4217 29.2935 14.3678 29.496 15.1069H16.7062Z" fill="#E04F5F"/>
</svg>
