<svg width="36" height="36" viewBox="0 0 36 36" fill="none" xmlns="http://www.w3.org/2000/svg">
<mask id="mask0_4140_8175" style="mask-type:luminance" maskUnits="userSpaceOnUse" x="0" y="0" width="36" height="36">
<path d="M0 3.8147e-06H36V36H0V3.8147e-06Z" fill="white"/>
</mask>
<g mask="url(#mask0_4140_8175)">
<path d="M33.3657 30.2515H2.63426C1.18174 30.2515 0 29.0697 0 27.6172V24.9864L0.734554 24.0274L0 22.877V22.2614C0 20.7051 1.11593 19.401 2.65345 19.1602L4.33329 18.8973L6.77644 15.6371C7.4482 14.7407 8.51794 14.2055 9.63816 14.2055H18.5459C19.4532 14.2055 20.3347 14.4674 21.0951 14.9626L27.0993 18.8741L31.8537 19.75C34.2562 20.1926 35.9999 22.2871 35.9999 24.73V27.6172C35.9999 29.0697 34.8183 30.2515 33.3657 30.2515Z" fill="#FF6666"/>
<path d="M18.5458 16.3149H9.63809C9.17867 16.3149 8.73992 16.5344 8.46437 16.902L6.24158 19.8682H24.7609L19.9437 16.73C19.5268 16.4584 19.0434 16.3149 18.5458 16.3149Z" fill="#F9F9F9"/>
<path d="M7.61646 32.3608C5.87179 32.3608 4.45239 30.9414 4.45239 29.1968C4.45239 27.4521 5.87179 26.0327 7.61646 26.0327C9.36112 26.0327 10.7805 27.4521 10.7805 29.1968C10.7805 30.9414 9.36112 32.3608 7.61646 32.3608Z" fill="#00607F"/>
<path d="M8.67114 29.1968C8.67114 28.6152 8.19801 28.1421 7.61646 28.1421C7.0349 28.1421 6.56177 28.6152 6.56177 29.1968C6.56177 29.7783 7.0349 30.2515 7.61646 30.2515C8.19801 30.2515 8.67114 29.7783 8.67114 29.1968Z" fill="#E2DFF4"/>
<path d="M1.59476 22.877H0V24.9863H1.59476C2.17723 24.9863 2.64945 24.5141 2.64945 23.9316C2.64945 23.3492 2.17723 22.877 1.59476 22.877Z" fill="#FFDF40"/>
<path d="M28.3826 32.3608C26.6379 32.3608 25.2185 30.9414 25.2185 29.1968C25.2185 27.4521 26.6379 26.0327 28.3826 26.0327C30.1272 26.0327 31.5466 27.4521 31.5466 29.1968C31.5466 30.9414 30.1272 32.3608 28.3826 32.3608Z" fill="#002C3C"/>
<path d="M29.4373 29.1968C29.4373 28.6152 28.9641 28.1421 28.3826 28.1421C27.801 28.1421 27.3279 28.6152 27.3279 29.1968C27.3279 29.7783 27.801 30.2515 28.3826 30.2515C28.9641 30.2515 29.4373 29.7783 29.4373 29.1968Z" fill="#BEBCDD"/>
<path d="M31.4719 21.8244L29.3142 21.4269C29.1018 21.3877 28.9059 21.5509 28.9059 21.7668V22.0726C28.9059 23.9636 30.4388 25.4966 32.3298 25.4966H33.5453C33.7362 25.4966 33.891 25.3418 33.891 25.1509V24.73C33.891 23.3047 32.8736 22.0827 31.4719 21.8244Z" fill="#FFBE40"/>
<path d="M20.5259 7.85645C20.5259 5.89079 19.5417 4.15512 18.0392 3.11506C17.6077 2.8163 17.0176 3.13489 17.0176 3.65977V5.97277C17.0176 7.21801 16.0082 8.22741 14.763 8.22741C13.5177 8.22741 12.5083 7.21801 12.5083 5.97277V3.65977C12.5083 3.13489 11.9182 2.8163 11.4867 3.11506C9.98423 4.15512 9 5.89079 9 7.85645C9 10.2391 10.446 12.2837 12.5083 13.1613V30.7168C12.5083 31.962 13.5177 32.9714 14.763 32.9714C16.0082 32.9714 17.0176 31.962 17.0176 30.7168V13.1613C19.0799 12.2837 20.5259 10.2391 20.5259 7.85645Z" fill="#E2DFF4"/>
<path d="M18.0392 3.14875C17.6076 2.84999 17.0176 3.16858 17.0176 3.69346V6.00646C17.0176 7.2517 16.0082 8.26111 14.7629 8.26111V33.0051C16.0082 33.0051 17.0176 31.9957 17.0176 30.7505V13.195C19.0798 12.3174 20.5259 10.2727 20.5259 7.89014C20.5259 5.92448 19.5417 4.18881 18.0392 3.14875Z" fill="#BEBCDD"/>
</g>
</svg>
