<svg width="36" height="36" viewBox="0 0 36 36" fill="none" xmlns="http://www.w3.org/2000/svg">
<g clip-path="url(#clip0_3497_3934)">
<path d="M11.8129 22.3472C13.0707 21.5374 12.93 19.1271 12.93 18.5647H23.0536C23.0536 19.1271 22.8976 21.5374 24.1553 22.3472L17.9918 29.2508L11.8129 22.3472Z" fill="#FFD7A3"/>
<path d="M21.9288 24.7512L24.1554 22.347C22.8976 21.5372 23.0537 19.1269 23.0537 18.5645H12.9301C13.6564 20.6528 18.4605 24.2356 21.9288 24.7512Z" fill="#FDC88E"/>
<path d="M25.8661 11.2534C25.8661 15.7573 23.2727 21.377 17.9922 21.377C12.7117 21.377 10.1183 15.7573 10.1183 11.2534C10.1183 6.7494 13.6436 5.06665 17.9922 5.06665C22.3408 5.06665 25.8661 6.7494 25.8661 11.2534Z" fill="#FFE1B2"/>
<path d="M30.9279 36C31.8598 36 32.6152 35.2446 32.6152 34.3127V28.8885C32.6152 26.4138 30.6868 23.7719 28.3298 23.0178L24.8112 21.8918C22.9181 23.3394 20.2127 25.314 17.9922 25.314C15.7716 25.314 13.0662 23.3394 11.1731 21.8918L7.65447 23.0178C5.29753 23.7719 3.36914 26.4138 3.36914 28.8885V34.3127C3.36914 35.2446 4.12453 36 5.05642 36H30.9279Z" fill="#A2CDE2"/>
<path d="M14.6176 1.69214C14.0903 1.69214 14.03 1.69214 13.4927 1.69214C11.3184 1.69214 9.55579 3.47472 9.55579 5.64909C9.55579 7.66791 10.1182 11.2534 10.1182 11.2534C10.1182 11.2534 10.7509 8.40612 13.4927 7.31645C15.1683 6.65047 14.6176 1.69214 14.6176 1.69214Z" fill="#545465"/>
<path d="M14.0548 1.71204C16.3162 -1.76448 22.1397 1.12965 25.8658 1.12965C26.4282 1.93811 26.8148 8.05448 25.8658 11.2533L24.1785 8.44115C24.1785 8.44115 19.0229 10.3359 13.4924 7.33627" fill="#545465"/>
<path d="M10.3888 12.3781C9.54572 12.1671 8.99341 12.6178 8.99341 13.5029C8.99341 14.6747 10.1272 17.5454 11.3191 15.7526C12.511 13.9599 10.3888 12.3781 10.3888 12.3781Z" fill="#FFE1B2"/>
<path d="M25.4678 12.3781C26.3881 12.1671 26.991 12.6178 26.991 13.5029C26.991 14.6747 25.7534 17.5454 24.4524 15.7526C23.1514 13.9599 25.4678 12.3781 25.4678 12.3781Z" fill="#FFE1B2"/>
<path d="M19.1169 27.0325C19.1169 27.3418 18.8638 27.5949 18.5545 27.5949H17.4296C17.1203 27.5949 16.8672 27.3418 16.8672 27.0325V25.9076C16.8672 25.5983 17.1203 25.3452 17.4296 25.3452H18.5545C18.8638 25.3452 19.1169 25.5983 19.1169 25.9076V27.0325Z" fill="#29394A"/>
<path d="M18.7648 27.2788L17.9922 27.5951L17.2194 27.2788L16.8673 35.9658H19.117L18.7648 27.2788Z" fill="#29394A"/>
<path d="M17.9919 25.3136L15.6452 27.6603C15.4009 27.9047 14.996 27.8729 14.7927 27.5934L10.6804 21.939L11.9903 20.6291C12.2019 20.4175 12.542 20.4087 12.7643 20.6087L17.9919 25.3136Z" fill="#B5E0F0"/>
<path d="M17.9919 25.3136L20.3386 27.6603C20.583 27.9047 20.9879 27.8729 21.1912 27.5934L25.3034 21.939L23.9935 20.6291C23.782 20.4175 23.4419 20.4087 23.2196 20.6087L17.9919 25.3136Z" fill="#B5E0F0"/>
<path d="M28.3454 23.0173L25.279 22.0361H25.2788L17.9999 31.0116L10.7208 22.0361H10.7207L7.65423 23.0173C5.29729 23.7714 3.3689 26.4133 3.3689 28.8881V34.3124C3.3689 35.1763 4.02078 35.8805 4.85805 35.9797H17.9761H18.0236H31.1417C31.979 35.8805 32.6308 35.1763 32.6308 34.3124V28.8881C32.6307 26.4133 30.7023 23.7714 28.3454 23.0173Z" fill="#4A698E"/>
<path d="M8.36118 25.4073L10.3379 25.6544V27.1088C10.3379 27.2906 10.4257 27.4611 10.5737 27.5667L17.9921 32.8575L18.0001 31.012L10.6806 21.9395L7.86853 22.9682V24.8492C7.86853 25.1328 8.07973 25.372 8.36118 25.4073Z" fill="#395A7F"/>
<path d="M27.6234 25.4073L25.6467 25.6544V27.1088C25.6467 27.2906 25.5588 27.4611 25.4109 27.5667L17.9924 32.8575L17.9845 31.012L25.304 21.9395L28.1161 22.9682V24.8492C28.116 25.1328 27.9048 25.372 27.6234 25.4073Z" fill="#395A7F"/>
</g>
<defs>
<clipPath id="clip0_3497_3934">
<rect width="36" height="36" fill="white"/>
</clipPath>
</defs>
</svg>
