<svg width="106" height="76" viewBox="0 0 106 76" fill="none" xmlns="http://www.w3.org/2000/svg">
<g clip-path="url(#clip0_4226_5507)">
<path fill-rule="evenodd" clip-rule="evenodd" d="M105.378 11.8171V75.1487H0.520264V11.8314L105.378 11.8171Z" fill="#E6E9ED"/>
<path fill-rule="evenodd" clip-rule="evenodd" d="M90.5779 29.9962H67.4639C66.531 29.9962 65.7715 29.2396 65.7715 28.3038C65.7715 27.3679 66.5281 26.6113 67.4639 26.6113H90.5779C91.5109 26.6113 92.2703 27.3679 92.2703 28.3038C92.2703 29.2396 91.5137 29.9962 90.5779 29.9962Z" fill="#656D78"/>
<path fill-rule="evenodd" clip-rule="evenodd" d="M90.5779 39.7925H67.4639C66.531 39.7925 65.7715 39.0359 65.7715 38.1C65.7715 37.1642 66.5281 36.4076 67.4639 36.4076H90.5779C91.5109 36.4076 92.2703 37.1642 92.2703 38.1C92.2703 39.0359 91.5137 39.7925 90.5779 39.7925Z" fill="#656D78"/>
<path fill-rule="evenodd" clip-rule="evenodd" d="M90.5779 49.5887H67.4639C66.531 49.5887 65.7715 48.8321 65.7715 47.8963C65.7715 46.9633 66.5281 46.2039 67.4639 46.2039H90.5779C91.5109 46.2039 92.2703 46.9605 92.2703 47.8963C92.2703 48.8293 91.5137 49.5887 90.5779 49.5887Z" fill="#656D78"/>
<path fill-rule="evenodd" clip-rule="evenodd" d="M90.5779 59.3822H67.4639C66.531 59.3822 65.7715 58.6256 65.7715 57.6898C65.7715 56.7568 66.5281 55.9973 67.4639 55.9973H90.5779C91.5109 55.9973 92.2703 56.7539 92.2703 57.6898C92.2703 58.6256 91.5137 59.3822 90.5779 59.3822Z" fill="#656D78"/>
<path d="M32.8302 62.8978C43.8237 62.8978 52.7356 53.9858 52.7356 42.9923C52.7356 31.9989 43.8237 23.0869 32.8302 23.0869C21.8368 23.0869 12.9248 31.9989 12.9248 42.9923C12.9248 53.9858 21.8368 62.8978 32.8302 62.8978Z" fill="#EF5B6D"/>
<path fill-rule="evenodd" clip-rule="evenodd" d="M35.1883 43.0349L41.5314 36.6918C42.1913 36.0319 42.1913 34.9595 41.5314 34.2996C40.8715 33.6397 39.7992 33.6397 39.1393 34.2996L32.7961 40.6427L26.453 34.2996C25.7931 33.6397 24.7208 33.6397 24.0609 34.2996C23.4009 34.9595 23.4009 36.0319 24.0609 36.6918L30.404 43.0349L24.0609 49.378C23.4009 50.0379 23.4009 51.1103 24.0609 51.7702C24.3908 52.1002 24.8232 52.2651 25.2555 52.2651C25.6879 52.2651 26.1202 52.1002 26.4502 51.7702L32.7933 45.4271L39.1364 51.7702C39.4664 52.1002 39.8987 52.2651 40.3311 52.2651C40.7634 52.2651 41.1958 52.1002 41.5257 51.7702C42.1857 51.1103 42.1857 50.0379 41.5257 49.378L35.1883 43.0349Z" fill="#E6E9ED"/>
<path fill-rule="evenodd" clip-rule="evenodd" d="M105.378 0.772217V11.8172L0.520264 11.8314V0.772217H105.378Z" fill="#CCD1D9"/>
<path fill-rule="evenodd" clip-rule="evenodd" d="M9.57976 6.31881C9.57976 5.11561 8.59843 4.13428 7.39523 4.13428C6.19203 4.13428 5.21069 5.11561 5.21069 6.31881C5.21069 7.52201 6.19203 8.50334 7.39523 8.50334C8.59843 8.50334 9.57976 7.52201 9.57976 6.31881Z" fill="#656D78"/>
<path fill-rule="evenodd" clip-rule="evenodd" d="M16.6567 6.31881C16.6567 5.11561 15.6753 4.13428 14.4721 4.13428C13.2689 4.13428 12.2876 5.11561 12.2876 6.31881C12.2876 7.52201 13.2689 8.50334 14.4721 8.50334C15.6753 8.50334 16.6567 7.52201 16.6567 6.31881Z" fill="#656D78"/>
<path fill-rule="evenodd" clip-rule="evenodd" d="M23.7367 6.31881C23.7367 5.11561 22.7554 4.13428 21.5522 4.13428C20.349 4.13428 19.3677 5.11561 19.3677 6.31881C19.3677 7.52201 20.349 8.50334 21.5522 8.50334C22.7554 8.50334 23.7367 7.52201 23.7367 6.31881Z" fill="#656D78"/>
</g>
<defs>
<clipPath id="clip0_4226_5507">
<rect width="105.25" height="74.5" fill="white" transform="translate(0.375 0.75)"/>
</clipPath>
</defs>
</svg>
