<svg width="36" height="36" viewBox="0 0 36 36" fill="none" xmlns="http://www.w3.org/2000/svg">
<g clip-path="url(#clip0_4131_5505)">
<path d="M34.9739 26.8557H0.805359C0.360563 26.8557 0 26.4951 0 26.0503V23.3567H36V25.8296C36 26.3962 35.5406 26.8557 34.9739 26.8557Z" fill="#399AEA"/>
<path d="M34.9739 26.8555H25.5502V12.6626H31.522C31.833 12.6626 32.1312 12.7872 32.3498 13.0085L35.6641 16.3637C35.8793 16.5815 35.9999 16.8753 35.9999 17.1815V25.8295C35.9999 26.3961 35.5405 26.8555 34.9739 26.8555Z" fill="#61AFF6"/>
<path d="M35.6642 16.3637L32.3499 13.0085C32.1313 12.7871 31.8331 12.6626 31.5221 12.6626H27.5071C27.8181 12.6626 28.1163 12.7872 28.3349 13.0085L31.6493 16.3637C31.8644 16.5815 31.9851 16.8753 31.9851 17.1815V26.8556H34.974C35.5407 26.8556 36.0001 26.3962 36.0001 25.8295V17.1814C36.0001 16.8753 35.8794 16.5815 35.6642 16.3637Z" fill="#399AEA"/>
<path d="M27.5461 19.6981V15.2882C27.5461 15.0228 27.7613 14.8076 28.0267 14.8076H30.9735C31.102 14.8076 31.2251 14.8591 31.3155 14.9505L33.8655 17.5319C33.9544 17.6219 34.0041 17.7432 34.0041 17.8697V19.6981C34.0041 19.9635 33.789 20.1786 33.5235 20.1786H28.0267C27.7613 20.1786 27.5461 19.9635 27.5461 19.6981Z" fill="#6EE4E8"/>
<path d="M30.5374 29.6647C32.2793 29.6647 33.6914 28.2526 33.6914 26.5107C33.6914 24.7688 32.2793 23.3567 30.5374 23.3567C28.7955 23.3567 27.3834 24.7688 27.3834 26.5107C27.3834 28.2526 28.7955 29.6647 30.5374 29.6647Z" fill="#3D6687"/>
<path d="M30.5374 27.7292C31.2104 27.7292 31.756 27.1836 31.756 26.5106C31.756 25.8376 31.2104 25.292 30.5374 25.292C29.8644 25.292 29.3188 25.8376 29.3188 26.5106C29.3188 27.1836 29.8644 27.7292 30.5374 27.7292Z" fill="#CCCBCA"/>
<path d="M0 24.8517H25.5502V6.91064C25.5502 6.59283 25.2926 6.33521 24.9748 6.33521H0.575438C0.257625 6.33521 0 6.59283 0 6.91064V24.8517Z" fill="#FFC06C"/>
<path d="M24.9748 6.33521H21.5353V24.8516H25.5503V6.91064C25.5502 6.59283 25.2926 6.33521 24.9748 6.33521Z" fill="#EDA558"/>
<path d="M6.30769 29.6647C8.0496 29.6647 9.4617 28.2526 9.4617 26.5107C9.4617 24.7688 8.0496 23.3567 6.30769 23.3567C4.56578 23.3567 3.15369 24.7688 3.15369 26.5107C3.15369 28.2526 4.56578 29.6647 6.30769 29.6647Z" fill="#3D6687"/>
<path d="M6.3077 27.7292C6.9807 27.7292 7.52628 27.1836 7.52628 26.5106C7.52628 25.8376 6.9807 25.292 6.3077 25.292C5.63469 25.292 5.08911 25.8376 5.08911 26.5106C5.08911 27.1836 5.63469 27.7292 6.3077 27.7292Z" fill="#CCCBCA"/>
<path d="M15.204 12.9516H10.075C9.83604 12.9516 9.64233 12.7579 9.64233 12.519V6.33521H15.6366V12.519C15.6366 12.758 15.4429 12.9516 15.204 12.9516Z" fill="#FF4C4C"/>
<path d="M17.0131 22.4656H22.6944C22.9935 22.4656 23.236 22.2231 23.236 21.9239C23.236 21.6248 22.9935 21.3823 22.6944 21.3823H17.0131C16.7139 21.3823 16.4714 21.6248 16.4714 21.9239C16.4714 22.2231 16.7139 22.4656 17.0131 22.4656Z" fill="white"/>
<path d="M17.0131 19.3362H22.6944C22.9935 19.3362 23.236 19.0937 23.236 18.7945C23.236 18.4954 22.9935 18.2529 22.6944 18.2529H17.0131C16.7139 18.2529 16.4714 18.4954 16.4714 18.7945C16.4714 19.0937 16.7139 19.3362 17.0131 19.3362Z" fill="white"/>
</g>
<defs>
<clipPath id="clip0_4131_5505">
<rect width="36" height="36" fill="white"/>
</clipPath>
</defs>
</svg>
