<svg width="48" height="48" viewBox="0 0 48 48" fill="none" xmlns="http://www.w3.org/2000/svg">
<g clip-path="url(#clip0_3497_3794)">
<path d="M9.00045 22.7489C8.86348 22.7489 8.72725 22.7196 8.59984 22.6639L4.5993 20.9148C4.23526 20.7551 4.00012 20.3963 4.00012 19.9978V17.2981C4.00012 16.7458 4.44836 16.2976 5.00066 16.2976C5.55296 16.2976 6.00044 16.7458 6.00044 17.2981L12.7022 19.5437C13.2296 19.3796 13.7906 19.6726 13.9554 20.1999C14.1195 20.7273 13.8257 21.2883 13.2991 21.4524L9.29859 22.7034C9.20118 22.7327 9.10077 22.7489 9.00045 22.7489Z" fill="#434A54"/>
<path d="M33.1883 16.4969C33.0857 16.4969 26.7956 17.4813 26.6946 17.449C26.1687 17.2791 25.8786 16.7166 26.0485 16.1907C26.6345 14.367 28.0084 12.8332 30.0182 11.7551C31.489 10.9655 32.7971 10.6902 32.8513 10.6784C33.3933 10.5671 33.9222 10.9157 34.035 11.4563C34.1463 11.9969 33.6102 16.4969 33.1883 16.4969Z" fill="#434A54"/>
<path d="M13.9207 29.7592C13.8914 29.7592 13.8628 29.7592 13.8335 29.7563C13.2827 29.7079 12.8755 29.2245 12.9232 28.6739L13.4636 22.4116C13.5113 21.8623 13.9954 21.4551 14.5462 21.502C15.0963 21.5488 15.5034 22.0337 15.4559 22.5845L14.9154 28.8453C14.8707 29.3666 14.4342 29.7592 13.9207 29.7592Z" fill="#E6E9ED"/>
<path d="M8.0007 24.498C3.58924 24.498 0.000366211 28.087 0.000366211 32.499C0.000366211 36.9098 3.58924 40.4985 8.0007 40.4985C12.4114 40.4985 16.0003 36.9098 16.0003 32.499C16.0004 28.087 12.4114 24.498 8.0007 24.498Z" fill="#434A54"/>
<path d="M39.9999 24.498C35.5908 24.498 32.0017 28.087 32.0017 32.499C32.0017 36.9098 35.5907 40.4985 39.9999 40.4985C44.4121 40.4985 48.0011 36.9098 48.0011 32.499C48.0011 28.087 44.4122 24.498 39.9999 24.498Z" fill="#434A54"/>
<path d="M8.0004 28.9988C6.07039 28.9988 4.50012 30.5691 4.50012 32.4998C4.50012 34.4291 6.07049 35.9994 8.0004 35.9994C9.93031 35.9994 11.4999 34.4291 11.4999 32.4998C11.5 30.5691 9.9304 28.9988 8.0004 28.9988Z" fill="#CCD1D9"/>
<path d="M39.9997 28.998C38.0706 28.998 36.5017 30.5684 36.5017 32.4991C36.5017 34.4283 38.0705 35.9987 39.9997 35.9987C41.9305 35.9987 43.5009 34.4283 43.5009 32.4991C43.5009 30.5684 41.9305 28.998 39.9997 28.998Z" fill="#CCD1D9"/>
<path d="M8.00106 33.4998C7.66927 33.4998 7.34479 33.3358 7.15438 33.034C6.8599 32.5667 6.99912 31.95 7.46639 31.6541L16.966 25.6541C17.4333 25.3597 18.0508 25.4989 18.3459 25.9661C18.6404 26.4334 18.5011 27.0516 18.0339 27.3461L8.53424 33.3461C8.36801 33.4501 8.18341 33.4998 8.00106 33.4998Z" fill="#E6E9ED"/>
<path d="M25.7086 27.2057C25.3175 27.5969 24.6839 27.5969 24.2935 27.2057C23.9031 26.8161 23.9031 26.1833 24.2935 25.7921C24.6839 25.401 25.3175 25.401 25.7086 25.7921C26.0983 26.1833 26.0983 26.8161 25.7086 27.2057Z" fill="black"/>
<path d="M45.3172 17.5511L39.317 15.5501C39.2144 15.5164 39.109 15.4988 39.0007 15.4988H34.65C34.0977 15.4988 33.651 15.947 33.651 16.4993C33.651 17.0516 34.0978 17.4998 34.65 17.4998H38.8396L44.6844 19.448C44.7899 19.4831 44.8954 19.4993 45.0009 19.4993C45.4198 19.4993 45.8095 19.2342 45.9501 18.8153C46.1243 18.2923 45.8416 17.7254 45.3172 17.5511Z" fill="#4A89DC"/>
<path d="M29.0015 29.4993H19.0001C18.6858 29.4993 18.3892 29.3498 18.2003 29.0993L12.3686 21.3226L2.6287 17.4276C2.18337 17.2489 1.92705 16.7801 2.0178 16.3099C2.10855 15.8396 2.52023 15.4984 3.00005 15.4984H26.8628L33.7198 13.5663C34.234 13.4228 34.7701 13.7055 34.9401 14.2124L35.5993 16.1826C35.6798 16.4258 35.6638 16.6924 35.5553 16.9253L29.9052 28.9251C29.7397 29.2751 29.3882 29.4993 29.0015 29.4993Z" fill="#CCD1D9"/>
<path d="M21.0002 21.4949C19.3456 21.4949 18.0001 22.8411 18.0001 24.4948C18.0001 26.1501 19.3456 27.4949 21.0002 27.4949C22.6547 27.4949 24.0003 26.1501 24.0003 24.4948C24.0003 22.8411 22.6547 21.4949 21.0002 21.4949Z" fill="#E6E9ED"/>
<path d="M25.3299 19.0749C24.7871 18.9709 24.2634 19.3283 24.1601 19.8702C24.0568 20.4122 24.4128 20.9366 24.9555 21.0392C26.5522 21.3439 27.8193 22.6212 28.7246 24.836C29.4527 26.6158 29.6474 28.3356 29.6518 28.3723C29.6752 28.589 29.7661 28.7809 29.9008 28.9317C29.9008 28.9273 29.9037 28.9244 29.9052 28.9214L31.2397 26.0856C30.6011 23.6261 29.025 19.7793 25.3299 19.0749Z" fill="#E6E9ED"/>
<path d="M12.3686 21.3226L2.6287 17.4276C2.18337 17.2489 1.92705 16.7801 2.0178 16.3099C2.10855 15.8396 2.52023 15.4984 3.00005 15.4984H26.8628L33.7198 13.5663C34.234 13.4228 34.7701 13.7055 34.9401 14.2124L35.5993 16.1826C35.6798 16.4258 35.6638 16.6924 35.5553 16.9253L34.5006 19.1636C34.5006 19.1636 28.7187 23.1244 12.3686 21.3226Z" fill="#5D9CEC"/>
<path d="M9.91591 15.4988H3.0002C2.52047 15.4988 2.1088 15.8401 2.01795 16.3103C1.92711 16.7805 2.18352 17.2493 2.62885 17.428L12.3688 21.323C14.8378 21.5955 17.0659 21.7361 19.0698 21.7786C16.6667 17.661 12.0831 15.8738 9.91591 15.4988Z" fill="#4A89DC"/>
<path d="M39.9997 33.4983C39.5807 33.4983 39.1911 33.2331 39.052 32.8142L31.2808 9.49685H29.0015C28.4478 9.49685 27.9995 9.05003 27.9995 8.49783C27.9995 7.94564 28.4477 7.49731 29.0015 7.49731H32.0015C32.4307 7.49731 32.813 7.77276 32.9492 8.18142L40.9488 32.1813C41.1246 32.7043 40.8405 33.2712 40.316 33.4455C40.2121 33.4806 40.1051 33.4983 39.9997 33.4983Z" fill="#E6E9ED"/>
</g>
<defs>
<clipPath id="clip0_3497_3794">
<rect width="48.0007" height="48" fill="white"/>
</clipPath>
</defs>
</svg>
