<svg width="48" height="48" viewBox="0 0 48 48" fill="none" xmlns="http://www.w3.org/2000/svg">
<g clip-path="url(#clip0_3497_3846)">
<path d="M35.8916 24.5432C34.8223 22.4603 32.3041 20.8928 28.4077 19.888C26.4507 19.3826 24.6533 19.1527 23.7231 19.0589L19.9409 8.6585C19.7973 8.26296 19.4223 8.00073 19.0018 8.00073H7.00189C6.5185 8.00073 6.10393 8.34649 6.0175 8.82106L2.01701 30.8208C1.92035 31.3569 2.27042 31.8755 2.80509 31.981L12.8056 33.982C12.8701 33.9937 12.936 33.9996 13.0019 33.9996H35.001C35.5533 33.9996 36.0015 33.5543 36.0015 33.0006V25.0004C36.0015 24.842 35.9634 24.6854 35.8916 24.5432Z" fill="#FFCE54"/>
<path d="M44.146 28.4654C43.3623 27.8209 42.5537 27.1529 41.7143 26.3003C40.2684 24.8289 39.5272 22.8923 39.5111 20.5442C39.4979 18.722 39.9462 17.3274 39.9506 17.3157C40.0517 17.011 40.0004 16.6755 39.8115 16.4148C39.624 16.1541 39.3222 16.0002 39.0015 16.0002H35.001C34.4487 16.0002 34.002 16.4485 34.002 17.0008V35.0015C34.002 35.5523 34.4488 36.0005 35.001 36.0005H47.0009C47.5532 36.0005 48.0014 35.5523 48.0014 35.0015C48.0014 31.6469 46.2144 30.1733 44.146 28.4654Z" fill="#ED5564"/>
<path d="M34.002 35.0015C34.002 35.5523 34.4488 36.0005 35.001 36.0005H47.0009C47.5532 36.0005 48.0014 35.5523 48.0014 35.0015C48.0014 34.2457 47.9106 33.5894 47.7465 33.0005H34.002V35.0015Z" fill="#DA4453"/>
<path d="M21.7266 26.0015L17.7011 13.6902C17.5678 13.2785 17.184 13.0002 16.7519 13.0002H9.87597C9.38817 13.0002 8.9707 13.3533 8.89007 13.8352L6.84375 26.0015H21.7266Z" fill="#4FC2E9"/>
<path d="M9.00145 22.0002C4.03851 22.0002 0.00146484 26.0365 0.00146484 30.9995C0.00146484 35.9625 4.03861 39.9995 9.00145 39.9995C13.9643 39.9995 18.0014 35.9624 18.0014 30.9995C18.0014 26.0367 13.9643 22.0002 9.00145 22.0002Z" fill="#434A54"/>
<path d="M9.0014 27.9995C7.34762 27.9995 6.00134 29.347 6.00134 30.9994C6.00134 32.6547 7.34753 33.9994 9.0014 33.9994C10.6553 33.9994 12.0015 32.6547 12.0015 30.9994C12.0014 29.347 10.6553 27.9995 9.0014 27.9995Z" fill="#CCD1D9"/>
<path d="M30.0014 27.9995C26.6924 27.9995 24.0015 30.6918 24.0015 33.9994C24.0015 37.31 26.6924 39.9994 30.0014 39.9994C33.3106 39.9994 36.0015 37.31 36.0015 33.9994C36.0015 30.6918 33.3106 27.9995 30.0014 27.9995Z" fill="#434A54"/>
<path d="M29.001 33.9995C29.001 34.5532 29.4492 35.0015 30.0014 35.0015C30.5537 35.0015 31.0019 34.5533 31.0019 33.9995C31.0019 33.4487 30.5537 33.0005 30.0014 33.0005C29.4492 33.0005 29.001 33.4487 29.001 33.9995Z" fill="#CCD1D9"/>
<path d="M9.0014 22.0002C8.66305 22.0002 8.33051 22.0193 8.00098 22.0559V23.0008C8.00098 23.5531 8.4492 23.9998 9.0014 23.9998C9.5536 23.9998 10.0019 23.553 10.0019 23.0008V22.0559C9.67229 22.0194 9.33975 22.0002 9.0014 22.0002Z" fill="#656D78"/>
<path d="M9.0014 38.0017C8.44911 38.0017 8.00098 38.4499 8.00098 39.0005V39.9439C8.33051 39.9819 8.66305 39.9996 9.0014 39.9996C9.33975 39.9996 9.67229 39.9819 10.0019 39.9439V39.0005C10.0019 38.4499 9.55369 38.0017 9.0014 38.0017Z" fill="#656D78"/>
<path d="M4.50141 23.206C4.20843 23.3758 3.93008 23.559 3.66345 23.7553L4.13512 24.5726C4.41197 25.0502 5.02285 25.2142 5.50183 24.9388C5.97931 24.6619 6.14338 24.0511 5.86803 23.5721L5.39486 22.7546C5.09317 22.888 4.79438 23.0375 4.50141 23.206Z" fill="#656D78"/>
<path d="M12.501 37.064C12.0235 37.3395 11.8594 37.9518 12.1349 38.4292L12.608 39.2465C12.9098 39.1147 13.2086 38.9623 13.5016 38.7954C13.7945 38.6256 14.0729 38.441 14.3395 38.2475L13.8679 37.4301C13.5908 36.9497 12.98 36.7857 12.501 37.064Z" fill="#656D78"/>
<path d="M1.20699 26.4996C1.03861 26.7926 0.887674 27.0913 0.755859 27.3931L1.57319 27.8677C2.05217 28.1431 2.66305 27.9791 2.9399 27.5015C3.21535 27.021 3.05128 26.4116 2.57371 26.1333L1.75488 25.6616C1.55997 25.9283 1.37687 26.2066 1.20699 26.4996Z" fill="#656D78"/>
<path d="M15.063 34.5006C14.7875 34.9782 14.9516 35.5905 15.4291 35.8658L16.248 36.3375C16.4428 36.0738 16.6259 35.7926 16.7959 35.4995C16.9643 35.2065 17.1152 34.9107 17.247 34.606L16.4296 34.1343C15.9506 33.8589 15.3398 34.023 15.063 34.5006Z" fill="#656D78"/>
<path d="M0.00146484 30.9995C0.00146484 31.3394 0.0204965 31.6734 0.0571534 32.0015H1.00198C1.55418 32.0015 2.001 31.5533 2.001 30.9995C2.001 30.4487 1.55418 30.0005 1.00198 30.0005H0.0571534C0.0204965 30.3286 0.00146484 30.6626 0.00146484 30.9995Z" fill="#656D78"/>
<path d="M16.002 30.9995C16.002 31.5532 16.4488 32.0015 17.001 32.0015H17.9458C17.9825 31.6734 18.0015 31.3395 18.0015 30.9995C18.0015 30.6626 17.9825 30.3286 17.9458 30.0005H17.0011C16.4488 30.0005 16.002 30.4487 16.002 30.9995Z" fill="#656D78"/>
<path d="M1.20699 35.4995C1.37687 35.7925 1.56006 36.0737 1.75488 36.3374L2.57371 35.8658C3.05128 35.5903 3.21535 34.978 2.9399 34.5006C2.66305 34.023 2.05217 33.8589 1.57319 34.1344L0.755859 34.606C0.887674 34.9106 1.03852 35.2065 1.20699 35.4995Z" fill="#656D78"/>
<path d="M15.0644 27.5015C15.3399 27.9791 15.9507 28.1431 16.4296 27.8677L17.2471 27.396C17.1152 27.0913 16.9643 26.7925 16.7959 26.4996C16.626 26.2066 16.4429 25.9283 16.248 25.6616L15.4292 26.1333C14.9516 26.4116 14.7876 27.021 15.0644 27.5015Z" fill="#656D78"/>
<path d="M4.50143 38.7955C4.79441 38.9653 5.0932 39.1147 5.39498 39.2466L5.86815 38.4293C6.1435 37.9518 5.97943 37.3395 5.50195 37.0641C5.02298 36.7858 4.41209 36.9498 4.13524 37.4274L3.66357 38.2477C3.93011 38.444 4.20846 38.6257 4.50143 38.7955Z" fill="#656D78"/>
<path d="M12.5011 24.9388C12.9801 25.2143 13.5909 25.0502 13.8678 24.5726L14.3395 23.7553C14.0728 23.559 13.7946 23.3759 13.5015 23.206C13.2085 23.0375 12.9097 22.8867 12.608 22.7549L12.1348 23.5723C11.8594 24.0511 12.0235 24.662 12.5011 24.9388Z" fill="#656D78"/>
<path d="M29.001 28.0845V29.0012C29.001 29.552 29.4492 30.0003 30.0014 30.0003C30.5537 30.0003 31.0019 29.552 31.0019 29.0012V28.0845C30.6767 28.0288 30.3428 27.9995 30.0014 27.9995C29.6601 27.9995 29.3262 28.0289 29.001 28.0845Z" fill="#656D78"/>
<path d="M30.0014 38.0017C29.4492 38.0017 29.001 38.447 29.001 39.0005V39.9175C29.3262 39.9702 29.6601 39.9996 30.0014 39.9996C30.3428 39.9996 30.6767 39.9703 31.0019 39.9175V39.0005C31.0019 38.447 30.5537 38.0017 30.0014 38.0017Z" fill="#656D78"/>
<path d="M26.5254 29.1099C26.2559 29.3003 25.9996 29.5171 25.7593 29.7573C25.5176 29.9975 25.3023 30.2553 25.1104 30.525L25.7593 31.1724C26.1489 31.562 26.7833 31.562 27.1729 31.1724C27.5639 30.7828 27.5639 30.1499 27.1729 29.7573L26.5254 29.1099Z" fill="#656D78"/>
<path d="M32.8301 36.8296C32.439 37.2193 32.439 37.8521 32.8301 38.2417L33.4775 38.8922C33.7471 38.6989 34.0034 38.4849 34.2437 38.2447C34.4854 38.0015 34.7007 37.7467 34.8926 37.4771L34.2437 36.8296C33.8541 36.437 33.2197 36.437 32.8301 36.8296Z" fill="#656D78"/>
<path d="M26.001 33.9995C26.001 33.4487 25.5542 33.0005 25.002 33.0005H24.085C24.0308 33.3257 24.0015 33.6597 24.0015 33.9995C24.0015 34.3423 24.0307 34.6763 24.085 35.0015H25.002C25.5542 35.0015 26.001 34.5532 26.001 33.9995Z" fill="#656D78"/>
<path d="M35.918 33.0005H35.001C34.4487 33.0005 34.002 33.4487 34.002 33.9995C34.002 34.5532 34.4488 35.0015 35.001 35.0015H35.918C35.9721 34.6763 36.0015 34.3424 36.0015 33.9995C36.0015 33.6597 35.9722 33.3257 35.918 33.0005Z" fill="#656D78"/>
<path d="M25.7593 36.8296L25.1104 37.4771C25.3023 37.7466 25.5176 38.0015 25.7593 38.2447C25.9995 38.4849 26.2559 38.6989 26.5254 38.8922L27.1729 38.2417C27.5639 37.8521 27.5639 37.2193 27.1729 36.8296C26.7833 36.437 26.1489 36.437 25.7593 36.8296Z" fill="#656D78"/>
<path d="M34.2437 31.1724L34.8926 30.525C34.7007 30.2554 34.4854 29.9976 34.2437 29.7573C34.0035 29.5171 33.7471 29.3003 33.4775 29.1099L32.8301 29.7573C32.439 30.1499 32.439 30.7828 32.8301 31.1724C33.2197 31.562 33.8541 31.562 34.2437 31.1724Z" fill="#656D78"/>
<path d="M20.001 10.0002H6.0014C5.4492 10.0002 5.00098 9.55345 5.00098 8.99975C5.00098 8.44896 5.4492 8.00073 6.0014 8.00073H20.001C20.5532 8.00064 21.0014 8.44896 21.0014 8.99975C21.0014 9.55345 20.5532 10.0002 20.001 10.0002Z" fill="#F6BB42"/>
</g>
<defs>
<clipPath id="clip0_3497_3846">
<rect width="48" height="48" fill="white" transform="translate(0.00146484)"/>
</clipPath>
</defs>
</svg>
