<svg width="48" height="48" viewBox="0 0 48 48" fill="none" xmlns="http://www.w3.org/2000/svg">
<g clip-path="url(#clip0_3497_3815)">
<path d="M41.0004 24.4617C37.1405 24.4617 34.0013 27.6015 34.0013 31.4614C34.0013 35.3197 37.1405 38.4604 41.0004 38.4604C44.8604 38.4604 48.001 35.3197 48.001 31.4614C48.001 27.6015 44.8604 24.4617 41.0004 24.4617Z" fill="#434A54"/>
<path d="M41 27.9607C39.0709 27.9607 37.5005 29.5309 37.5005 31.4617C37.5005 33.3909 39.0709 34.9611 41 34.9611C42.9308 34.9611 44.5011 33.3909 44.5011 31.4617C44.5011 29.5309 42.9308 27.9607 41 27.9607Z" fill="#CCD1D9"/>
<path d="M41.0017 32.4605C40.6486 32.4605 40.3059 32.273 40.1243 31.942L36.1238 24.6405C35.8587 24.1556 36.0359 23.5491 36.5208 23.2825C37.0041 23.0174 37.6121 23.1946 37.8772 23.6795L41.8777 30.9809C42.1429 31.4643 41.9657 32.0723 41.4808 32.3374C41.3283 32.421 41.1643 32.4605 41.0017 32.4605Z" fill="#E6E9ED"/>
<path d="M7.00092 24.4617C3.14101 24.4617 0.000366211 27.6015 0.000366211 31.4614C0.000366211 35.3197 3.1411 38.4604 7.00092 38.4604C10.8607 38.4604 14.0001 35.3197 14.0001 31.4614C14.0001 27.6015 10.8608 24.4617 7.00092 24.4617Z" fill="#434A54"/>
<path d="M7.00042 27.9607C5.06976 27.9607 3.49939 29.5309 3.49939 31.4617C3.49939 33.3909 5.06976 34.9611 7.00042 34.9611C8.92967 34.9611 10.5 33.3909 10.5 31.4617C10.5 29.5309 8.92967 27.9607 7.00042 27.9607Z" fill="#CCD1D9"/>
<path d="M43.9785 18.1677C43.4834 15.8283 41.9613 12.4592 37.5315 9.69066C37.1419 9.44747 36.6381 9.50025 36.3084 9.81807L34.3074 11.7414C33.9924 12.0446 33.9104 12.5177 34.1066 12.9089L35.1203 14.9363C33.3185 14.5159 30.6787 14.0179 28.2925 14.0179C26.7941 14.0179 25.5562 14.2186 24.6113 14.617C22.7963 15.3831 21.1351 18.1077 20.435 19.3866L5.04821 17.5466C4.62923 17.4968 4.22496 17.7136 4.03596 18.0901C3.92027 18.3201 3.81479 18.6966 3.97586 19.177C4.24099 19.968 5.24884 21.1911 10.7245 24.2718C12.2128 25.1097 13.6894 25.8882 14.7866 26.4551L6.55407 30.567C6.15853 30.7633 5.94027 31.1954 6.01499 31.6305C6.08971 32.0641 6.43838 32.3995 6.8764 32.4537L14.5362 33.4103L16.2941 35.168C16.4816 35.3555 16.735 35.461 17.0001 35.461H32.0004C32.2699 35.461 32.5292 35.3526 32.7167 35.1592C32.9043 34.9673 33.0068 34.7066 33.0009 34.437C32.9994 34.3857 32.9116 29.2998 36.0362 26.086C37.7192 24.3553 40.0645 23.472 43.0045 23.4617C43.4483 23.4602 43.838 23.1658 43.961 22.7395C43.9843 22.659 44.5249 20.7385 43.9785 18.1677Z" fill="#A0D468"/>
<path d="M20.4351 19.3872L5.04821 17.5473C4.62923 17.4976 4.22496 17.7143 4.03596 18.0908C3.92027 18.3208 3.81479 18.6973 3.97586 19.1778C4.24099 19.9688 5.24884 21.1919 10.7245 24.2725C12.2128 25.1105 13.6894 25.8889 14.7866 26.4558C14.7866 26.4558 15.0913 20.9619 20.4351 19.3872Z" fill="#8CC153"/>
<path d="M35.1204 14.9377C33.3185 14.5173 30.6788 14.0193 28.2926 14.0193C26.7941 14.0193 25.5562 14.22 24.6114 14.6185C22.7964 15.3845 21.1352 18.1091 20.4351 19.388C20.4351 19.388 22.9195 20.0398 27.9352 18.6717C34.6854 16.8302 35.1204 14.9377 35.1204 14.9377Z" fill="#434A54"/>
<path d="M20.5067 35.462L12.7488 27.4727L14.7864 26.4561L23.4027 35.462H20.5067Z" fill="#E6E9ED"/>
<path d="M23 25.4619C21.3462 25.4619 20 26.8059 20 28.4612C20 30.115 21.3462 31.4612 23 31.4612C24.6553 31.4612 26.0001 30.115 26.0001 28.4612C26.0001 26.8058 24.6553 25.4619 23 25.4619Z" fill="#E6E9ED"/>
<path d="M26.7075 30.7538C27.0986 31.1434 27.0986 31.7778 26.7075 32.1674C26.3163 32.5585 25.6835 32.5585 25.2938 32.1674C24.9027 31.7778 24.9027 31.1434 25.2938 30.7538C25.6835 30.3627 26.3163 30.3627 26.7075 30.7538Z" fill="#F5F7FA"/>
<path d="M36.8737 21.6589L30.6099 24.7469L34.3454 28.5269C34.7644 27.6699 35.3137 26.8277 36.0358 26.0865C37.0363 25.0574 38.2712 24.328 39.7257 23.9031L36.8737 21.6589Z" fill="#E6E9ED"/>
</g>
<defs>
<clipPath id="clip0_3497_3815">
<rect width="48.0007" height="48" fill="white" transform="translate(0.000732422)"/>
</clipPath>
</defs>
</svg>
