<svg width="48" height="48" viewBox="0 0 48 48" fill="none" xmlns="http://www.w3.org/2000/svg">
<g clip-path="url(#clip0_3497_3891)">
<path d="M26.009 14.8691H24.008H17.9948H15.9952V12.4932C15.9952 11.9409 16.4435 11.4927 16.9958 11.4927H25.0084C25.5607 11.4927 26.0089 11.9409 26.0089 12.4932V14.8691H26.009Z" fill="#434A54"/>
<path d="M6.98067 21.4858C6.98067 21.4858 10.6838 14.4854 21.0022 14.4854C31.322 14.4854 35.0046 21.4887 35.0046 21.4887C47.0031 21.4887 47.0031 21.4887 47.0031 32.4845H5.00316C3.15597 32.4992 1.00269 30.5069 1.00269 30.5069V23.4853L3.00363 21.4858H6.98067Z" fill="#FFCE54"/>
<path d="M34.3366 20.4854C32.8717 18.5488 28.8624 14.4854 21.0021 14.4854C13.1387 14.4854 9.11634 18.5502 7.64856 20.4854H34.3366Z" fill="#4FC2E9"/>
<path d="M20.0034 14.9089H18.0039V20.4853H20.0034V14.9089Z" fill="#3BAFDA"/>
<path d="M4.98416 33.4866C2.81184 33.4866 0.57202 31.4709 0.324515 31.2424C0.119387 31.052 0.00219727 30.7853 0.00219727 30.507V23.4854C0.00219727 23.2202 0.107668 22.9653 0.295171 22.7778L2.29611 20.7783C2.48362 20.5908 2.73853 20.4853 3.00366 20.4853H6.42259C6.88844 19.7822 7.87424 18.4873 9.50318 17.1997C11.6492 15.5048 15.386 13.4849 21.0022 13.4849C26.6214 13.4849 30.3522 15.5063 32.4939 17.2026C34.1184 18.4902 35.0999 19.7851 35.5658 20.4897C41.4441 20.4912 44.447 20.5381 46.1785 22.126C48.0022 23.7989 48.0022 26.7014 48.0022 32.4846C48.0022 33.0383 47.5554 33.4866 47.0032 33.4866H4.98416ZM2.00314 30.0471C2.68724 30.595 3.99967 31.4856 4.98407 31.4856H4.99578C4.99728 31.4856 5.00019 31.4856 5.0031 31.4856H46.0026C45.9968 27.0795 45.922 24.6047 44.8278 23.6012C43.6148 22.4894 40.5563 22.4894 35.0046 22.4894C34.634 22.4894 34.2926 22.2829 34.1197 21.9548C34.1124 21.9415 33.2262 20.3112 31.1754 18.7102C28.4332 16.57 25.0114 15.4861 21.0021 15.4861C11.3971 15.4861 7.89909 21.8889 7.86393 21.9534C7.69105 22.28 7.3512 22.4851 6.9806 22.4851H3.41673L2.00314 23.9002V30.0471Z" fill="#FFCE54"/>
<path d="M11.0032 26.5081C8.24639 26.5081 6.00366 28.7493 6.00366 31.5061C6.00366 34.2659 8.24639 36.5071 11.0032 36.5071C13.76 36.5071 16.0027 34.2659 16.0027 31.5061C16.0027 28.7493 13.76 26.5081 11.0032 26.5081Z" fill="#434A54"/>
<path d="M37.0027 26.5081C34.2459 26.5081 32.0032 28.7493 32.0032 31.5061C32.0032 34.2659 34.2459 36.5071 37.0027 36.5071C39.7594 36.5071 42.0022 34.2659 42.0022 31.5061C42.0022 28.7493 39.7594 26.5081 37.0027 26.5081Z" fill="#434A54"/>
<path d="M10.0027 31.5061C10.0027 32.0598 10.4509 32.5081 11.0031 32.5081C11.5554 32.5081 12.0036 32.0599 12.0036 31.5061C12.0036 30.9553 11.5554 30.5071 11.0031 30.5071C10.4509 30.5071 10.0027 30.9553 10.0027 31.5061Z" fill="#F5F7FA"/>
<path d="M16.0085 24.4932C15.4562 24.4932 15.0081 24.94 15.0081 25.4937C15.0081 26.0452 15.4563 26.4934 16.0085 26.4934C16.5607 26.4934 17.009 26.0452 17.009 25.4937C17.009 24.9399 16.5607 24.4932 16.0085 24.4932Z" fill="#434A54"/>
<path d="M18.0079 26.4934C17.4557 26.4934 17.0089 26.9416 17.0089 27.4924C17.0089 28.0461 17.4557 28.4944 18.0079 28.4944C18.5602 28.4944 19.0084 28.0462 19.0084 27.4924C19.0084 26.9416 18.5602 26.4934 18.0079 26.4934Z" fill="#434A54"/>
<path d="M20.0089 24.4932C19.4566 24.4932 19.0084 24.94 19.0084 25.4937C19.0084 26.0452 19.4566 26.4934 20.0089 26.4934C20.5611 26.4934 21.008 26.0452 21.008 25.4937C21.008 24.9399 20.5611 24.4932 20.0089 24.4932Z" fill="#434A54"/>
<path d="M22.0085 26.4934C21.4562 26.4934 21.0079 26.9416 21.0079 27.4924C21.0079 28.0461 21.4562 28.4944 22.0085 28.4944C22.5606 28.4944 23.0089 28.0462 23.0089 27.4924C23.0089 26.9416 22.5606 26.4934 22.0085 26.4934Z" fill="#434A54"/>
<path d="M24.0079 24.4932C23.4556 24.4932 23.0089 24.94 23.0089 25.4937C23.0089 26.0452 23.4557 26.4934 24.0079 26.4934C24.5601 26.4934 25.0084 26.0452 25.0084 25.4937C25.0084 24.9399 24.5602 24.4932 24.0079 24.4932Z" fill="#434A54"/>
<path d="M26.0089 26.4934C25.4566 26.4934 25.0084 26.9416 25.0084 27.4924C25.0084 28.0461 25.4566 28.4944 26.0089 28.4944C26.5612 28.4944 27.008 28.0462 27.008 27.4924C27.008 26.9416 26.5612 26.4934 26.0089 26.4934Z" fill="#434A54"/>
<path d="M28.0084 24.4932C27.4561 24.4932 27.0079 24.94 27.0079 25.4937C27.0079 26.0452 27.4561 26.4934 28.0084 26.4934C28.5606 26.4934 29.0089 26.0452 29.0089 25.4937C29.0089 24.9399 28.5606 24.4932 28.0084 24.4932Z" fill="#434A54"/>
<path d="M30.008 26.4934C29.4558 26.4934 29.009 26.9416 29.009 27.4924C29.009 28.0461 29.4559 28.4944 30.008 28.4944C30.5602 28.4944 31.0085 28.0462 31.0085 27.4924C31.0084 26.9416 30.5602 26.4934 30.008 26.4934Z" fill="#434A54"/>
<path d="M32.0089 24.4932C31.4566 24.4932 31.0084 24.94 31.0084 25.4937C31.0084 26.0452 31.4566 26.4934 32.0089 26.4934C32.5612 26.4934 33.008 26.0452 33.008 25.4937C33.0081 24.9399 32.5612 24.4932 32.0089 24.4932Z" fill="#434A54"/>
<path d="M36.0022 31.5061C36.0022 32.0598 36.4504 32.5081 37.0026 32.5081C37.5549 32.5081 38.0031 32.0599 38.0031 31.5061C38.0031 30.9553 37.5549 30.5071 37.0026 30.5071C36.4504 30.5071 36.0022 30.9553 36.0022 31.5061Z" fill="#F5F7FA"/>
<path d="M47.7281 25.4526C47.6051 24.6894 47.425 24.0405 47.1641 23.4854H43.9899C43.4376 23.4854 42.9894 23.9322 42.9894 24.4858C42.9894 25.0381 43.4376 25.4848 43.9899 25.4848H47.4806C47.567 25.4849 47.649 25.4732 47.7281 25.4526Z" fill="#F5F7FA"/>
<path d="M3.00366 20.4854C2.73853 20.4854 2.48362 20.5909 2.29611 20.7784L0.295171 22.7779C0.107668 22.9654 0.00219727 23.2203 0.00219727 23.4854H3.00366C3.55595 23.4854 4.00267 23.0372 4.00267 22.4849V20.4854L3.00366 20.4854Z" fill="#FC6E51"/>
</g>
<defs>
<clipPath id="clip0_3497_3891">
<rect width="48" height="48" fill="white" transform="translate(0.00219727)"/>
</clipPath>
</defs>
</svg>
