<svg width="96" height="96" viewBox="0 0 96 96" fill="none" xmlns="http://www.w3.org/2000/svg">
<path fill-rule="evenodd" clip-rule="evenodd" d="M22.899 84.0768C20.5272 78.0056 12.2209 51.8193 12.054 51.2981C11.8665 50.7056 12.1928 50.0737 12.7853 49.8843C24.1853 46.2506 28.0553 50.2593 32.1503 54.5025C34.4547 56.8875 36.8359 59.355 40.8447 60.8662L62.4372 66.6506C64.2859 67.1475 65.8534 68.2837 66.849 69.855C67.7659 71.3006 68.1015 72.9468 67.8109 74.5462L85.0965 65.5106C88.479 63.7425 92.8965 64.9256 94.9422 68.1487C95.9528 69.7406 96.249 71.5893 95.7747 73.3556C95.3022 75.1218 94.1209 76.5768 92.4503 77.4487L61.8409 93.4406C61.4753 93.6318 60.9278 93.7312 60.1572 93.7312C56.814 93.7331 49.2372 91.8431 33.7703 87.2606C31.6122 86.6212 29.9097 86.1168 28.9759 85.8656C27.3484 85.4306 24.5922 85.56 22.9797 86.5293C22.4472 86.85 21.7572 86.6775 21.4365 86.145C21.1159 85.6125 21.2884 84.9225 21.8209 84.6018C22.1565 84.3993 22.5184 84.2268 22.899 84.0768Z" fill="#FDD7AD"/>
<path fill-rule="evenodd" clip-rule="evenodd" d="M22.899 84.0769C20.5272 78.0056 12.2209 51.8194 12.054 51.2981C11.8665 50.7056 12.1928 50.0738 12.7853 49.8844C13.4828 49.6613 14.1522 49.4681 14.7953 49.3013L24.6015 85.8956C24.0015 86.0419 23.4447 86.25 22.9797 86.5294C22.4472 86.85 21.7572 86.6775 21.4365 86.145C21.1159 85.6125 21.2884 84.9225 21.8209 84.6019C22.1565 84.3994 22.5184 84.2269 22.899 84.0769Z" fill="#E4C29C"/>
<path fill-rule="evenodd" clip-rule="evenodd" d="M67.8878 72.8662C67.9365 73.425 67.9122 73.9875 67.8109 74.5462C66.1815 75.9356 61.4322 78.1162 48.7478 74.9362C48.4478 74.8612 48.264 74.5556 48.339 74.2556C48.414 73.9537 48.7197 73.7718 49.0197 73.8468C65.4053 77.9531 67.5709 73.1568 67.5784 73.1437C67.644 73.0106 67.7584 72.9131 67.8878 72.8662Z" fill="#E4C29C"/>
<path fill-rule="evenodd" clip-rule="evenodd" d="M13.2355 91.3855C11.1167 91.3855 9.25296 89.9586 8.70546 87.9149L0.164832 56.038C-0.504543 53.5424 0.982332 50.9699 3.47608 50.3005L12.3167 47.9324C12.6055 47.8555 12.913 47.8949 13.1717 48.0449C13.4286 48.193 13.618 48.4386 13.6948 48.7274L24.0786 87.4799C24.1555 87.7686 24.1161 88.0761 23.9661 88.333C23.818 88.5918 23.5723 88.7811 23.2836 88.858L14.443 91.2261C14.0473 91.333 13.6423 91.3855 13.2355 91.3855Z" fill="#8F46DA"/>
<path fill-rule="evenodd" clip-rule="evenodd" d="M18.2304 90.2118L16.0573 90.7949L12.5529 77.7168C12.3917 77.1168 12.7479 76.4999 13.3479 76.3387C13.9479 76.1793 14.5648 76.5337 14.7261 77.1356L18.2304 90.2118Z" fill="#7439B0"/>
<path fill-rule="evenodd" clip-rule="evenodd" d="M64.8584 60.2063C64.849 60.2063 64.8396 60.2044 64.8303 60.2044C59.7115 60.1688 54.7409 60.0863 53.3365 60.0619C46.534 59.9438 43.8978 56.4582 42.8834 53.5557C41.4434 49.4288 42.2196 43.5994 45.0715 37.1382C47.6609 31.275 51.6096 25.7944 55.6334 22.4775C56.104 22.0894 56.7996 22.1569 57.1878 22.6275C57.4971 23.0006 68.1565 23.28 72.3059 23.5725C72.2328 23.2519 72.3059 22.9013 72.5309 22.6275C72.919 22.1569 73.6146 22.0894 74.0853 22.4775C78.109 25.7944 82.0578 31.275 84.6471 37.1382C87.499 43.5994 88.2771 49.4288 86.8353 53.5557C85.8228 56.4582 83.1865 59.9438 76.3821 60.0619C73.489 60.1125 68.9459 60.1763 64.8678 60.2063C64.864 60.2063 64.8621 60.2063 64.8584 60.2063Z" fill="#FEBB50"/>
<path fill-rule="evenodd" clip-rule="evenodd" d="M57.0473 17.1487C56.5598 17.1487 56.1136 16.8225 55.9823 16.3293L52.5867 3.6581C52.4985 3.32622 52.5679 2.97185 52.7779 2.69997C52.9861 2.4281 53.3104 2.26872 53.6536 2.26872C54.9698 2.26872 56.0723 3.13497 57.1392 3.97497C57.8723 4.55435 58.7048 5.20872 59.2579 5.20872C59.8073 5.20872 60.6417 4.55435 61.3748 3.97497C62.4417 3.13497 63.5442 2.26685 64.8604 2.26685C66.1767 2.26685 67.2792 3.13497 68.3442 3.97497C69.0792 4.55435 69.9117 5.20872 70.4629 5.20872C71.0142 5.20872 71.8467 4.55435 72.5817 3.97497C73.6467 3.13497 74.7492 2.26872 76.0673 2.26872C76.4104 2.26872 76.7329 2.4281 76.9429 2.69997C77.151 2.97185 77.2223 3.32622 77.1342 3.6581L73.7385 16.3293C73.581 16.9181 72.9754 17.2687 72.3848 17.1112C71.796 16.9518 71.4473 18.3412 71.6048 17.7525L71.8242 16.9331H57.8967L58.1161 17.7525C58.2736 18.3431 57.9229 16.9537 57.3342 17.1112C57.2386 17.1356 57.1429 17.1487 57.0473 17.1487Z" fill="#FEBB50"/>
<path fill-rule="evenodd" clip-rule="evenodd" d="M73.6051 24.4349H56.1132C53.4957 24.4349 51.3657 22.3049 51.3657 19.6874C51.3657 17.068 53.4957 14.938 56.1132 14.938H73.6051C76.2226 14.938 78.3507 17.068 78.3507 19.6855C78.3507 22.3049 76.2226 24.4349 73.6051 24.4349Z" fill="#C6701A"/>
<path fill-rule="evenodd" clip-rule="evenodd" d="M64.8584 50.6458C61.2659 50.6458 58.3428 48.2833 58.3428 45.3789C58.3428 44.7695 58.8378 44.2745 59.4471 44.2745C60.0565 44.2745 60.5515 44.7695 60.5515 45.3789C60.5515 47.0364 62.524 48.437 64.8584 48.437C67.1946 48.437 69.1672 47.0364 69.1672 45.3789C69.1672 43.7214 67.1946 42.3189 64.8584 42.3189C61.2659 42.3189 58.3428 39.9564 58.3428 37.052C58.3428 34.1477 61.2659 31.7852 64.8584 31.7852C68.4528 31.7852 71.3759 34.1477 71.3759 37.052C71.3759 37.6614 70.8809 38.1564 70.2715 38.1564C69.6621 38.1564 69.1672 37.6614 69.1672 37.052C69.1672 35.3945 67.1946 33.9939 64.8584 33.9939C62.524 33.9939 60.5515 35.3945 60.5515 37.052C60.5515 38.7095 62.524 40.1102 64.8584 40.1102C68.4528 40.1102 71.3759 42.4745 71.3759 45.3789C71.3759 48.2833 68.4528 50.6458 64.8584 50.6458Z" fill="white"/>
<path fill-rule="evenodd" clip-rule="evenodd" d="M64.8583 53.145C64.2489 53.145 63.7539 52.65 63.7539 52.0406V30.39C63.7539 29.7788 64.2489 29.2856 64.8583 29.2856C65.4695 29.2856 65.9627 29.7788 65.9627 30.39V52.0406C65.9627 52.65 65.4695 53.145 64.8583 53.145Z" fill="white"/>
</svg>
