<svg width="36" height="36" viewBox="0 0 36 36" fill="none" xmlns="http://www.w3.org/2000/svg">
<path d="M27 32C27 33.0609 26.5786 34.0783 25.8284 34.8284C25.0783 35.5786 24.0609 36 23 36H13C11.9391 36 10.9217 35.5786 10.1716 34.8284C9.42143 34.0783 9 33.0609 9 32V4C9 2.93913 9.42143 1.92172 10.1716 1.17157C10.9217 0.421427 11.9391 0 13 0L23 0C24.0609 0 25.0783 0.421427 25.8284 1.17157C26.5786 1.92172 27 2.93913 27 4V32Z" fill="#31373D"/>
<path d="M17.999 25C19.0599 25 20.0773 25.4214 20.8275 26.1716C21.5776 26.9217 21.999 27.9391 21.999 29C21.999 30.0609 21.5776 31.0783 20.8275 31.8284C20.0773 32.5786 19.0599 33 17.999 33C16.9382 33 15.9207 32.5786 15.1706 31.8284C14.4205 31.0783 13.999 30.0609 13.999 29C13.999 27.9391 14.4205 26.9217 15.1706 26.1716C15.9207 25.4214 16.9382 25 17.999 25Z" fill="#77B255"/>
<path d="M17.999 14C19.0599 14 20.0773 14.4214 20.8275 15.1716C21.5776 15.9217 21.999 16.9391 21.999 18C21.999 19.0609 21.5776 20.0783 20.8275 20.8284C20.0773 21.5786 19.0599 22 17.999 22C16.9382 22 15.9207 21.5786 15.1706 20.8284C14.4205 20.0783 13.999 19.0609 13.999 18C13.999 16.9391 14.4205 15.9217 15.1706 15.1716C15.9207 14.4214 16.9382 14 17.999 14Z" fill="#FFCC4D"/>
<path d="M17.999 3C19.0599 3 20.0773 3.42143 20.8275 4.17157C21.5776 4.92172 21.999 5.93913 21.999 7C21.999 8.06087 21.5776 9.07828 20.8275 9.82843C20.0773 10.5786 19.0599 11 17.999 11C16.9382 11 15.9207 10.5786 15.1706 9.82843C14.4205 9.07828 13.999 8.06087 13.999 7C13.999 5.93913 14.4205 4.92172 15.1706 4.17157C15.9207 3.42143 16.9382 3 17.999 3Z" fill="#DD2E44"/>
</svg>
