<svg width="512" height="512" viewBox="0 0 512 512" fill="none" xmlns="http://www.w3.org/2000/svg">
<path d="M475.381 174.141L442.179 199.981L93.5291 47.7912L133.327 24.8278L475.381 174.141Z" fill="#52CC7B"/>
<path d="M442.179 199.984L475.381 174.144V405.34L442.178 438.479L442.179 199.984Z" fill="#3D997A"/>
<path d="M442.18 438.479L93.53 286.289V47.7978L442.18 199.988V438.479Z" fill="#94E671"/>
<path d="M359.785 206.213V360.32L133.327 261.472V107.364L359.785 206.213Z" fill="#52CC7B"/>
<path d="M403.203 421.466L359.788 402.514V164.02L403.203 182.97V421.466Z" fill="#F5F5F5"/>
<path d="M359.786 164.02L389.814 136.791L433.551 155.886L403.203 182.974L359.786 164.02Z" fill="#E6E6E6"/>
<path d="M418.471 222.828L385.268 248.668L36.6184 96.4824L76.4167 73.5209L418.471 222.828Z" fill="#52CC7B"/>
<path d="M385.268 248.67L418.471 222.83V454.025L385.268 487.165V248.67Z" fill="#3D997A"/>
<path d="M385.268 487.165L36.6184 334.975V96.4844L385.268 248.674V487.165Z" fill="#94E671"/>
<path d="M302.875 254.899V409.007L76.4167 310.157V156.05L302.875 254.899Z" fill="#52CC7B"/>
<path d="M283.211 323.369C283.211 372.132 250.856 397.537 210.943 380.115C171.031 362.693 138.675 309.041 138.675 260.279C138.675 211.518 171.03 186.111 210.942 203.533C250.855 220.955 283.211 274.607 283.211 323.369Z" fill="#52CC7B"/>
<path d="M279.193 321.615C279.193 367.667 248.636 391.661 210.943 375.208C173.25 358.755 142.693 308.085 142.693 262.033C142.693 215.982 173.249 191.989 210.943 208.442C248.637 224.895 279.193 275.57 279.193 321.615Z" fill="#94E671"/>
<path d="M346.291 470.152L302.876 451.2V212.705L346.291 231.657V470.152Z" fill="#F5F5F5"/>
<path d="M302.874 212.705L332.902 185.477L376.64 204.572L346.291 231.66L302.874 212.705Z" fill="#E6E6E6"/>
<path d="M237.789 326.267C236.341 335.042 230.906 341.284 223.254 342.965C221.706 343.301 220.127 343.472 218.542 343.474V347.72C218.542 349.736 217.742 351.669 216.316 353.094C214.891 354.52 212.958 355.32 210.942 355.32C208.927 355.32 206.994 354.52 205.568 353.094C204.143 351.669 203.342 349.736 203.342 347.72V339.006C202.876 338.732 202.409 338.465 201.947 338.166C192.88 332.319 185.959 322.614 183.883 312.836C183.464 310.865 183.846 308.807 184.944 307.117C186.042 305.427 187.767 304.242 189.739 303.823C191.711 303.405 193.768 303.786 195.458 304.885C197.149 305.983 198.333 307.708 198.752 309.68C199.997 315.55 204.485 321.717 210.184 325.392C213.772 327.706 217.351 328.701 219.994 328.119C221.949 327.69 222.605 324.951 222.795 323.793C224.048 316.204 218.817 304.065 204.375 295.346C191.244 287.418 185.85 274.678 185.174 265.399C184.604 257.551 187.088 250.742 191.986 246.717C195.206 244.121 199.206 242.685 203.342 242.643V237.357C203.342 235.341 204.143 233.408 205.568 231.983C206.994 230.558 208.927 229.757 210.942 229.757C212.958 229.757 214.891 230.558 216.316 231.983C217.742 233.408 218.542 235.341 218.542 237.357V247.165C224.95 251.143 230.693 257.52 234.807 265.511C235.275 266.399 235.562 267.371 235.652 268.371C235.743 269.371 235.634 270.379 235.332 271.336C235.03 272.294 234.542 273.182 233.895 273.95C233.249 274.718 232.456 275.35 231.564 275.809C230.671 276.269 229.696 276.547 228.696 276.628C227.695 276.709 226.689 276.591 225.734 276.281C224.779 275.971 223.895 275.474 223.134 274.82C222.372 274.167 221.747 273.368 221.295 272.472C216.526 263.214 210.097 258.939 205.671 258.024C203.919 257.662 202.41 257.827 201.636 258.463C200.862 259.1 200.11 261.21 200.335 264.303C200.715 269.537 204.058 277.4 212.231 282.336C232.839 294.777 239.917 313.366 237.789 326.267Z" fill="#3D997A"/>
</svg>
